<svg width="45" height="65" fill="none" xmlns="http://www.w3.org/2000/svg"><g clip-path="url(#clip0)" fill="#BB162B"><path d="M22.508 65c-5.837 0-11.674.008-17.51 0C2.79 65 .921 63.56.262 61.378a4.801 4.801 0 01-.222-1.361c-.016-2.994-.082-5.987.008-8.972.165-5.463 2.355-9.897 6.405-13.265 3.046-2.54 6.554-3.744 10.423-3.762 3.77-.017 7.541-.06 11.303.01 6.266.121 11.14 2.975 14.49 8.613 1.58 2.653 2.313 5.594 2.33 8.727.016 2.775.008 5.55 0 8.326 0 3.037-2.14 5.306-5.022 5.314-4.759.01-9.509 0-14.267 0C24.64 65 23.578 65 22.508 65zm10.661-2.776V48.121c0-.846.56-1.466 1.326-1.466.74-.008 1.317.629 1.325 1.466v.48a7171.79 7171.79 0 01-.04 13.283c0 .28.073.384.353.375 1.26-.017 2.52-.017 3.779-.017 1.482-.009 2.437-1.021 2.437-2.6v-7.925c.008-3.596-1.037-6.807-3.236-9.547-2.535-3.177-5.795-4.923-9.698-5.333-.304-.035-.502.053-.683.323-.873 1.266-1.77 2.514-2.634 3.788a.815.815 0 00-.091.62c1.3 4.555 2.61 9.11 3.935 13.657.082.288.058.454-.19.646a743.262 743.262 0 00-6.948 5.638c-.255.21-.395.174-.625-.018a749.13 749.13 0 00-6.364-5.306c-.272-.227-.313-.419-.23-.759 1.16-4.6 2.305-9.198 3.457-13.798.074-.279.041-.488-.123-.724a307.322 307.322 0 01-2.668-3.814c-.148-.218-.304-.288-.551-.262-1.779.158-3.5.594-5.088 1.458-4.99 2.74-7.73 7.051-7.912 13.056-.082 2.775-.025 5.55-.016 8.325 0 1.563.946 2.557 2.42 2.566 1.177.009 2.355 0 3.532 0 .115 0 .23-.017.37-.026V56.63c0-2.731-.016-5.463.009-8.194 0-.42.098-.873.296-1.23.28-.516.939-.673 1.457-.48.568.209.898.715.898 1.413v14.077c7.187.008 14.308.008 21.503.008zm-10.636-3.996c1.408-1.135 2.766-2.26 4.15-3.352.246-.2.295-.366.205-.68-1.013-3.465-2.009-6.939-3.013-10.403-.14-.48-.181-1.135-.494-1.38-.321-.243-.922-.069-1.4-.078-.041 0-.09-.017-.123 0-.107.079-.264.157-.288.27a2131.51 2131.51 0 00-2.997 11.992c-.033.122.016.332.107.401 1.26 1.074 2.544 2.139 3.853 3.23zm3.194-21.443h-6.43c.667.942 1.276 1.806 1.894 2.67.05.07.19.105.288.114.683.008 1.367.008 2.05 0 .107 0 .255-.053.313-.131.626-.855 1.226-1.72 1.885-2.653zM37.302 15.5c.025 8.413-6.536 15.516-14.86 15.499C14.35 30.982 7.73 24.026 7.73 15.517 7.722 6.938 14.358-.01 22.566 0c8.109.009 14.736 6.973 14.736 15.5zM22.516 28.231c6.702-.017 12.152-5.725 12.135-12.706-.016-7.13-5.441-12.777-12.291-12.768-6.561.009-12.003 5.795-11.987 12.768.008 6.999 5.483 12.724 12.143 12.706z"/></g><defs><clipPath id="clip0"><path fill="#fff" d="M0 0h45v65H0z"/></clipPath></defs></svg>