<svg width="63" height="63" fill="none" xmlns="http://www.w3.org/2000/svg"><g clip-path="url(#clip0)"><path d="M32.904 40.368c0 .321 0 .562-.08.803-.08.802-.481 1.525-1.043 2.167L13.483 61.636c-1.525 1.525-3.772 1.525-5.297 0-2.327-2.247-4.575-4.575-6.902-6.902-1.525-1.525-1.525-3.772 0-5.297l18.298-18.298c.803-.803 1.766-1.204 2.97-1.124-.08-.16-.161-.24-.241-.24l-5.377-5.377c-.16-.16-.321-.16-.482-.16C9.31 26.403 2.006 22.07.642 14.686c-.401-2.007-.24-3.933.401-5.859.321-.963 1.204-1.123 1.846-.481 1.525 1.524 3.05 2.969 4.494 4.494 1.124 1.123 2.488 1.123 3.612 0l2.087-2.087c1.203-1.204 1.123-2.488 0-3.691L8.666 2.649c-.24-.241-.481-.562-.4-.964.08-.561.4-.802.882-.963 2.89-.882 5.698-.722 8.427.402 4.815 2.006 7.784 6.821 7.463 12.038-.08 1.043-.32 2.006-.561 2.97 0 .16-.08.32.08.48l8.507 8.508.08.08c.08-.08.16-.16.321-.24L48.554 9.87c.16-.16.24-.4.24-.642l-.24-2.889c0-.481.16-.883.642-1.123 2.97-1.605 5.939-3.29 8.908-4.896.562-.32.964-.24 1.445.16l2.729 2.73c.561.641.642.962.32 1.604-1.604 2.97-3.29 5.94-4.895 8.909-.24.481-.642.722-1.123.642-.963-.08-1.927-.16-2.89-.16-.16 0-.4.08-.561.16-5.056 5.056-10.112 10.112-15.249 15.168l-.24.24.24.241 8.266 8.267c.241.24.402.24.642.16 7.223-2.247 14.687 2.488 15.81 9.952.241 1.846.161 3.611-.4 5.457-.322.963-1.204 1.204-1.927.482l-4.494-4.495c-1.124-1.123-2.488-1.123-3.611 0l-2.167 2.167c-1.044 1.043-1.044 2.488 0 3.531 1.524 1.525 3.05 2.97 4.494 4.495.24.24.401.481.401.802.08.562-.24.963-.802 1.124-1.525.481-3.13.722-4.735.481-5.056-.562-8.588-3.21-10.434-7.865-1.043-2.648-1.043-5.297-.24-8.025.08-.16 0-.401-.08-.482a190.607 190.607 0 00-5.699-5.698zm-2.006.401s-.08 0-.08-.08c0-.562-.241-.883-.562-1.284l-6.661-6.66c-.803-.803-1.766-.803-2.568 0L2.969 50.8c-.882.883-.882 1.766 0 2.649l6.581 6.58c.883.883 1.846.883 2.729 0l17.977-17.976.24-.241c.081-.401.242-.722.402-1.044zm2.648-2.728c.08.08.16.16.241.32 2.247 2.248 4.495 4.495 6.742 6.662.481.482.561.963.32 1.605-.802 2.007-.882 4.093-.32 6.18 1.043 4.173 4.654 7.223 8.908 7.624.802.08 1.525 0 2.327 0v-.08c-.08-.08-.16-.16-.24-.321l-3.05-3.05a4.457 4.457 0 010-6.34l2.247-2.247c1.846-1.846 4.575-1.846 6.5 0 1.044.963 2.007 2.006 2.97 3.05.08.08.08.24.16.4l.161-.16c0-.16.08-.24.08-.401 0-.722.08-1.364 0-2.087-.722-6.58-7.544-10.834-13.723-8.426-.642.24-1.124.16-1.605-.402-2.89-2.889-5.779-5.858-8.748-8.748-.08-.08-.16-.24-.24-.32l-2.088 2.086c.963 1.846.883 2.568-.642 4.655zM2.648 11.156c-.16 1.203-.16 2.327.08 3.45 1.365 6.18 7.705 9.711 13.644 7.464.562-.24 1.043-.16 1.445.321l5.858 5.859 1.204 1.204c1.444-1.445 3.05-1.686 4.735-.642l2.087-2.087c-.08-.08-.241-.16-.321-.24l-8.748-8.749c-.482-.481-.642-.963-.321-1.605.722-1.845.883-3.691.481-5.617-1.043-4.655-4.895-7.946-9.71-8.106-.562 0-1.124 0-1.686.08v.08l3.29 3.29c1.846 1.927 1.846 4.575 0 6.501l-2.166 2.167c-1.926 1.926-4.575 1.926-6.581 0-1.044-.963-2.007-2.006-2.97-2.97-.08-.24-.16-.32-.32-.4zM32.744 31.78c.16-.16.24-.321.401-.482l18.78-18.78c.32-.32.722-.48 1.204-.48.882.08 1.765.16 2.568.16.24 0 .32 0 .481-.24 1.365-2.489 2.729-4.896 4.093-7.384.08-.16.08-.321-.08-.482L58.746 2.65c-.16-.161-.32-.161-.481-.08-2.408 1.364-4.896 2.728-7.303 4.092a.443.443 0 00-.241.402c.08.802.08 1.685.16 2.487.08.562-.16.963-.561 1.365-6.18 6.42-12.44 12.76-18.78 19.02-.08.08-.24.16-.401.24.642.563 1.043 1.044 1.605 1.606zm-7.143 0l5.538 5.538c.401-.402.883-.803 1.284-1.204.481-.482.401-1.204-.08-1.766a83.547 83.547 0 00-3.772-3.772c-.482-.481-1.284-.481-1.766-.08-.401.482-.802.883-1.204 1.284z" fill="#BB162B" stroke="#BB162B" stroke-width=".4" stroke-miterlimit="10"/></g><defs><clipPath id="clip0"><path fill="#fff" d="M0 0h63v63H0z"/></clipPath></defs></svg>