<svg width="63" height="67" viewBox="0 0 63 67" fill="none" xmlns="http://www.w3.org/2000/svg">
<g clip-path="url(#clip0)">
<mask id="path-2-inside-1" fill="white">
<path d="M28.2988 18C29.7812 18 31.2696 18 32.7519 18C32.9086 18.0126 33.0713 18.0379 33.228 18.0379C36.0783 18.0568 38.9225 18.1515 41.7487 18.6249C43.3456 18.8963 44.9244 19.2119 46.4429 19.8179C47.5938 20.2723 48.564 20.954 49.1787 22.1028C49.3534 22.431 49.5583 22.7466 49.7331 23.0748C51.9265 27.2408 53.7885 31.5771 55.6204 35.9261C55.765 36.2732 55.994 36.4815 56.2652 36.6709C57.3378 37.4157 58.2718 38.3246 59.013 39.4229C60.2664 41.2786 60.8087 43.3868 60.9293 45.6276C61.0679 48.2597 61.0076 50.8792 60.6159 53.486C60.3809 55.0514 60.0555 56.5978 59.7723 58.1506C59.6759 58.6808 59.3625 59.009 58.8925 59.1668C58.6816 59.2426 58.6334 59.3625 58.6334 59.5834C58.6093 60.8774 58.5972 62.1713 58.5249 63.459C58.4586 64.6709 57.8801 65.6051 56.928 66.2741C56.6147 66.495 56.2652 66.6655 55.9217 66.8359C55.753 66.9179 55.5601 66.9684 55.3794 66.9684C52.728 66.9748 50.0826 66.9558 47.4311 66.9874C46.8527 66.9937 46.3465 66.8675 45.8584 66.5771C44.8641 65.9838 44.1289 65.1632 43.924 63.9513C43.8276 63.3959 43.8517 62.8215 43.8337 62.2534C43.8216 61.963 43.8337 61.6727 43.8337 61.4454C43.2672 61.5654 42.7671 61.6979 42.2609 61.7737C41.9475 61.8242 41.6221 61.8052 41.2967 61.8052C39.3925 61.8179 37.4823 61.8305 35.5781 61.8305C30.7935 61.8242 26.0029 61.8115 21.2183 61.7926C20.5374 61.7926 19.8504 61.7863 19.2237 61.4265C19.2056 61.4139 19.1695 61.4328 19.0851 61.4454C19.0851 62.1461 19.1393 62.8593 19.067 63.5537C19.0188 64.0523 18.8682 64.5636 18.6452 65.0117C18.2053 65.908 17.4461 66.4572 16.5723 66.8422C16.4277 66.9053 16.271 66.9748 16.1203 66.9748C13.4328 66.9811 10.7452 66.9811 8.05161 66.9748C7.27426 66.9748 6.5632 66.7349 5.9365 66.2678C5.20736 65.725 4.68311 65.0117 4.51438 64.0839C4.41797 63.541 4.41194 62.9793 4.38181 62.4238C4.3336 61.5212 4.30347 60.6186 4.26732 59.716C4.25527 59.4319 4.19501 59.2299 3.87563 59.1479C3.71293 59.11 3.5442 58.9396 3.45382 58.7818C3.30919 58.523 3.17662 58.239 3.12239 57.9423C2.78494 56.0424 2.37517 54.1551 2.18234 52.2426C1.99554 50.4121 2.00759 48.55 1.98951 46.7069C1.97746 44.9459 2.18234 43.2101 2.82712 41.5564C3.62857 39.4986 4.9362 37.8765 6.70782 36.6709C6.99104 36.4815 7.17182 36.248 7.31042 35.9261C8.41317 33.376 9.48578 30.807 10.6608 28.2885C11.6551 26.1488 12.7579 24.0658 13.8425 21.9702C14.2523 21.1749 14.8971 20.6069 15.6744 20.2029C16.6386 19.6979 17.663 19.376 18.7115 19.1172C21.4593 18.4608 24.2433 18.1957 27.0394 18.0631C27.4612 18.0442 27.877 18.0189 28.2988 18ZM4.88799 54.1172C5.02659 54.8873 5.16518 55.6005 5.27968 56.3138C5.31583 56.5473 5.4002 56.5978 5.6111 56.5978C8.91935 56.6294 12.2336 56.6673 15.5419 56.7178C15.7226 56.7178 15.9215 56.7683 16.0842 56.8503C17.5666 57.6204 19.0369 58.4094 20.5133 59.1794C20.6519 59.2489 20.8146 59.2994 20.9652 59.2994C27.9674 59.3057 34.9755 59.3057 41.9777 59.2994C42.1283 59.2994 42.297 59.2552 42.4356 59.1794C43.9361 58.3968 45.4245 57.6078 46.925 56.8251C47.0515 56.7556 47.2082 56.7115 47.3528 56.7115C49.8114 56.6799 52.27 56.6483 54.7286 56.6294C55.6927 56.6231 56.6508 56.6294 57.627 56.6294C57.7777 55.7647 57.9223 54.9567 58.073 54.1172C57.9344 54.1172 57.838 54.1172 57.7415 54.1172C57.0606 54.1172 56.3797 54.1172 55.6927 54.1172C52.3242 54.0983 48.9497 54.0857 45.5812 54.0604C45.2257 54.0604 44.8641 53.991 44.5086 53.9405C44.2615 53.9026 44.0988 53.7448 44.0024 53.4987C43.7794 52.9432 43.7613 52.4319 44.2012 51.9585C45.0208 51.0938 45.7981 50.1849 46.6297 49.3327C48.0157 47.9188 49.4077 46.505 50.8298 45.1353C51.6312 44.3652 52.6195 43.9297 53.7222 43.9044C55.0781 43.8665 56.4279 43.8602 57.7837 43.8413C57.9042 43.8413 58.0187 43.8413 58.1814 43.8413C58.1332 43.5951 58.1031 43.3742 58.0428 43.1659C57.4161 41.0325 56.1266 39.486 54.2405 38.4761C52.8666 37.7439 51.3601 37.4409 49.8596 37.1695C46.5032 36.5636 43.1105 36.3048 39.7059 36.2227C36.1446 36.1344 32.5832 36.1407 29.0219 36.128C24.4 36.1154 19.7781 36.2417 15.1803 36.8539C13.4388 37.0875 11.7033 37.3526 10.0281 37.927C7.55748 38.7665 5.80393 40.4013 4.96633 43.0207C4.88799 43.2732 4.84581 43.5383 4.7735 43.8413C4.94222 43.8413 5.05069 43.8413 5.15916 43.8413C5.95458 43.8413 6.74398 43.8287 7.5394 43.8476C8.23239 43.8602 8.92537 43.8729 9.61233 43.9423C10.7814 44.0622 11.7395 44.6871 12.565 45.5077C13.951 46.8774 15.3129 48.2723 16.6627 49.6799C17.4099 50.4563 18.121 51.2705 18.8441 52.0721C19.0369 52.2867 19.1454 52.5329 19.1213 52.8422C19.049 53.5996 18.7416 53.9405 18.0125 54.0352C17.8618 54.0541 17.7112 54.0667 17.5605 54.0667C13.487 54.0857 9.41347 54.1046 5.33994 54.1235C5.20736 54.1172 5.08082 54.1172 4.88799 54.1172ZM10.3716 35.0929C10.4981 35.0676 10.5584 35.0613 10.6126 35.0487C13.4569 34.3607 16.3433 34.0009 19.2478 33.8494C22.2126 33.6979 25.1834 33.5906 28.1481 33.5464C33.5775 33.4644 39.0009 33.5086 44.4242 33.8936C46.6237 34.0514 48.8171 34.2849 50.9865 34.752C51.5047 34.8656 52.0169 34.9729 52.5713 35.0929C52.505 34.9288 52.4688 34.8088 52.4146 34.6952C51.8602 33.4391 51.3239 32.1704 50.7454 30.927C49.6728 28.642 48.564 26.3697 47.4854 24.0848C46.9672 22.9928 46.1295 22.3742 45.0388 22.0207C42.4477 21.1876 39.7842 20.8467 37.0967 20.7205C35.0659 20.6258 33.0231 20.6447 30.9863 20.6447C28.3108 20.6447 25.6293 20.6069 22.9598 20.9603C21.2484 21.1876 19.5551 21.4968 17.898 22.0334C16.8073 22.3868 15.9576 23.0117 15.4635 24.11C15.3611 24.3372 15.2165 24.5455 15.114 24.7728C13.6618 27.9035 12.2095 31.0406 10.7633 34.1713C10.6367 34.4554 10.5222 34.7457 10.3716 35.0929ZM56.0723 59.3246C55.982 59.312 55.9458 59.3057 55.9036 59.3057C53.1859 59.312 50.4682 59.312 47.7505 59.3246C47.6481 59.3246 47.5336 59.3625 47.4372 59.413C47.1057 59.5834 46.7683 59.7538 46.4489 59.9495C46.3585 60.0063 46.2621 60.1452 46.2621 60.2525C46.2561 61.1235 46.2621 61.9946 46.2922 62.8656C46.3405 64.1849 46.7141 64.33 47.7505 64.3427C50.0946 64.3616 52.4447 64.3679 54.7888 64.4058C55.2227 64.4121 55.5481 64.3048 55.8313 63.9513C55.982 63.762 56.0724 63.5978 56.0663 63.3454C56.0543 62.4554 56.0603 61.5591 56.0603 60.6691C56.0723 60.2272 56.0723 59.7854 56.0723 59.3246ZM6.87655 59.3057C6.87655 59.4698 6.87655 59.5834 6.87655 59.697C6.87655 60.789 6.90668 61.881 6.8645 62.973C6.84642 63.4905 6.97297 63.8756 7.35863 64.1975C7.50927 64.3237 7.64185 64.3932 7.83468 64.3932C9.26885 64.3868 10.703 64.3995 12.1372 64.3868C13.2701 64.3805 14.403 64.3616 15.5358 64.3174C16.283 64.2922 16.5542 64.0334 16.6205 63.2633C16.6747 62.6384 16.6747 62.0072 16.6868 61.376C16.6928 60.9468 16.8133 60.4292 16.6265 60.1136C16.4397 59.8043 15.9456 59.6718 15.566 59.5077C15.3129 59.4004 15.0357 59.312 14.7645 59.312C12.2637 59.2994 9.769 59.3057 7.26824 59.3057C7.15977 59.3057 7.03925 59.3057 6.87655 59.3057ZM58.3562 51.523C58.3682 51.4409 58.3923 51.3526 58.3984 51.2579C58.4586 50.3363 58.537 49.4148 58.5671 48.4932C58.5912 47.8684 58.543 47.2372 58.5249 46.606C58.5189 46.4482 58.4526 46.3661 58.2778 46.3724C56.8859 46.3977 55.4878 46.404 54.0958 46.4482C53.3667 46.4734 52.6978 46.7133 52.1615 47.2624C50.878 48.5753 49.6005 49.8945 48.323 51.2137C48.2567 51.2831 48.1964 51.3652 48.0759 51.523C51.5469 51.523 54.9334 51.523 58.3562 51.523ZM14.873 51.4851C14.7163 51.3084 14.6319 51.2011 14.5295 51.0938C13.5955 50.1154 12.6615 49.1244 11.7154 48.1587C11.3418 47.78 10.9441 47.4265 10.5464 47.073C10.1486 46.7196 9.69067 46.486 9.15436 46.4734C7.78044 46.4355 6.40653 46.404 5.03261 46.3724C4.38784 46.3598 4.35168 46.3661 4.36976 47.0478C4.41194 48.4554 4.50233 49.8566 4.56861 51.2642C4.58067 51.5041 4.65298 51.5861 4.89402 51.5798C7.91301 51.5546 10.932 51.5482 13.957 51.5293C14.2342 51.5293 14.5114 51.5041 14.873 51.4851Z"/>
</mask>
<path d="M28.2988 18C29.7812 18 31.2696 18 32.7519 18C32.9086 18.0126 33.0713 18.0379 33.228 18.0379C36.0783 18.0568 38.9225 18.1515 41.7487 18.6249C43.3456 18.8963 44.9244 19.2119 46.4429 19.8179C47.5938 20.2723 48.564 20.954 49.1787 22.1028C49.3534 22.431 49.5583 22.7466 49.7331 23.0748C51.9265 27.2408 53.7885 31.5771 55.6204 35.9261C55.765 36.2732 55.994 36.4815 56.2652 36.6709C57.3378 37.4157 58.2718 38.3246 59.013 39.4229C60.2664 41.2786 60.8087 43.3868 60.9293 45.6276C61.0679 48.2597 61.0076 50.8792 60.6159 53.486C60.3809 55.0514 60.0555 56.5978 59.7723 58.1506C59.6759 58.6808 59.3625 59.009 58.8925 59.1668C58.6816 59.2426 58.6334 59.3625 58.6334 59.5834C58.6093 60.8774 58.5972 62.1713 58.5249 63.459C58.4586 64.6709 57.8801 65.6051 56.928 66.2741C56.6147 66.495 56.2652 66.6655 55.9217 66.8359C55.753 66.9179 55.5601 66.9684 55.3794 66.9684C52.728 66.9748 50.0826 66.9558 47.4311 66.9874C46.8527 66.9937 46.3465 66.8675 45.8584 66.5771C44.8641 65.9838 44.1289 65.1632 43.924 63.9513C43.8276 63.3959 43.8517 62.8215 43.8337 62.2534C43.8216 61.963 43.8337 61.6727 43.8337 61.4454C43.2672 61.5654 42.7671 61.6979 42.2609 61.7737C41.9475 61.8242 41.6221 61.8052 41.2967 61.8052C39.3925 61.8179 37.4823 61.8305 35.5781 61.8305C30.7935 61.8242 26.0029 61.8115 21.2183 61.7926C20.5374 61.7926 19.8504 61.7863 19.2237 61.4265C19.2056 61.4139 19.1695 61.4328 19.0851 61.4454C19.0851 62.1461 19.1393 62.8593 19.067 63.5537C19.0188 64.0523 18.8682 64.5636 18.6452 65.0117C18.2053 65.908 17.4461 66.4572 16.5723 66.8422C16.4277 66.9053 16.271 66.9748 16.1203 66.9748C13.4328 66.9811 10.7452 66.9811 8.05161 66.9748C7.27426 66.9748 6.5632 66.7349 5.9365 66.2678C5.20736 65.725 4.68311 65.0117 4.51438 64.0839C4.41797 63.541 4.41194 62.9793 4.38181 62.4238C4.3336 61.5212 4.30347 60.6186 4.26732 59.716C4.25527 59.4319 4.19501 59.2299 3.87563 59.1479C3.71293 59.11 3.5442 58.9396 3.45382 58.7818C3.30919 58.523 3.17662 58.239 3.12239 57.9423C2.78494 56.0424 2.37517 54.1551 2.18234 52.2426C1.99554 50.4121 2.00759 48.55 1.98951 46.7069C1.97746 44.9459 2.18234 43.2101 2.82712 41.5564C3.62857 39.4986 4.9362 37.8765 6.70782 36.6709C6.99104 36.4815 7.17182 36.248 7.31042 35.9261C8.41317 33.376 9.48578 30.807 10.6608 28.2885C11.6551 26.1488 12.7579 24.0658 13.8425 21.9702C14.2523 21.1749 14.8971 20.6069 15.6744 20.2029C16.6386 19.6979 17.663 19.376 18.7115 19.1172C21.4593 18.4608 24.2433 18.1957 27.0394 18.0631C27.4612 18.0442 27.877 18.0189 28.2988 18ZM4.88799 54.1172C5.02659 54.8873 5.16518 55.6005 5.27968 56.3138C5.31583 56.5473 5.4002 56.5978 5.6111 56.5978C8.91935 56.6294 12.2336 56.6673 15.5419 56.7178C15.7226 56.7178 15.9215 56.7683 16.0842 56.8503C17.5666 57.6204 19.0369 58.4094 20.5133 59.1794C20.6519 59.2489 20.8146 59.2994 20.9652 59.2994C27.9674 59.3057 34.9755 59.3057 41.9777 59.2994C42.1283 59.2994 42.297 59.2552 42.4356 59.1794C43.9361 58.3968 45.4245 57.6078 46.925 56.8251C47.0515 56.7556 47.2082 56.7115 47.3528 56.7115C49.8114 56.6799 52.27 56.6483 54.7286 56.6294C55.6927 56.6231 56.6508 56.6294 57.627 56.6294C57.7777 55.7647 57.9223 54.9567 58.073 54.1172C57.9344 54.1172 57.838 54.1172 57.7415 54.1172C57.0606 54.1172 56.3797 54.1172 55.6927 54.1172C52.3242 54.0983 48.9497 54.0857 45.5812 54.0604C45.2257 54.0604 44.8641 53.991 44.5086 53.9405C44.2615 53.9026 44.0988 53.7448 44.0024 53.4987C43.7794 52.9432 43.7613 52.4319 44.2012 51.9585C45.0208 51.0938 45.7981 50.1849 46.6297 49.3327C48.0157 47.9188 49.4077 46.505 50.8298 45.1353C51.6312 44.3652 52.6195 43.9297 53.7222 43.9044C55.0781 43.8665 56.4279 43.8602 57.7837 43.8413C57.9042 43.8413 58.0187 43.8413 58.1814 43.8413C58.1332 43.5951 58.1031 43.3742 58.0428 43.1659C57.4161 41.0325 56.1266 39.486 54.2405 38.4761C52.8666 37.7439 51.3601 37.4409 49.8596 37.1695C46.5032 36.5636 43.1105 36.3048 39.7059 36.2227C36.1446 36.1344 32.5832 36.1407 29.0219 36.128C24.4 36.1154 19.7781 36.2417 15.1803 36.8539C13.4388 37.0875 11.7033 37.3526 10.0281 37.927C7.55748 38.7665 5.80393 40.4013 4.96633 43.0207C4.88799 43.2732 4.84581 43.5383 4.7735 43.8413C4.94222 43.8413 5.05069 43.8413 5.15916 43.8413C5.95458 43.8413 6.74398 43.8287 7.5394 43.8476C8.23239 43.8602 8.92537 43.8729 9.61233 43.9423C10.7814 44.0622 11.7395 44.6871 12.565 45.5077C13.951 46.8774 15.3129 48.2723 16.6627 49.6799C17.4099 50.4563 18.121 51.2705 18.8441 52.0721C19.0369 52.2867 19.1454 52.5329 19.1213 52.8422C19.049 53.5996 18.7416 53.9405 18.0125 54.0352C17.8618 54.0541 17.7112 54.0667 17.5605 54.0667C13.487 54.0857 9.41347 54.1046 5.33994 54.1235C5.20736 54.1172 5.08082 54.1172 4.88799 54.1172ZM10.3716 35.0929C10.4981 35.0676 10.5584 35.0613 10.6126 35.0487C13.4569 34.3607 16.3433 34.0009 19.2478 33.8494C22.2126 33.6979 25.1834 33.5906 28.1481 33.5464C33.5775 33.4644 39.0009 33.5086 44.4242 33.8936C46.6237 34.0514 48.8171 34.2849 50.9865 34.752C51.5047 34.8656 52.0169 34.9729 52.5713 35.0929C52.505 34.9288 52.4688 34.8088 52.4146 34.6952C51.8602 33.4391 51.3239 32.1704 50.7454 30.927C49.6728 28.642 48.564 26.3697 47.4854 24.0848C46.9672 22.9928 46.1295 22.3742 45.0388 22.0207C42.4477 21.1876 39.7842 20.8467 37.0967 20.7205C35.0659 20.6258 33.0231 20.6447 30.9863 20.6447C28.3108 20.6447 25.6293 20.6069 22.9598 20.9603C21.2484 21.1876 19.5551 21.4968 17.898 22.0334C16.8073 22.3868 15.9576 23.0117 15.4635 24.11C15.3611 24.3372 15.2165 24.5455 15.114 24.7728C13.6618 27.9035 12.2095 31.0406 10.7633 34.1713C10.6367 34.4554 10.5222 34.7457 10.3716 35.0929ZM56.0723 59.3246C55.982 59.312 55.9458 59.3057 55.9036 59.3057C53.1859 59.312 50.4682 59.312 47.7505 59.3246C47.6481 59.3246 47.5336 59.3625 47.4372 59.413C47.1057 59.5834 46.7683 59.7538 46.4489 59.9495C46.3585 60.0063 46.2621 60.1452 46.2621 60.2525C46.2561 61.1235 46.2621 61.9946 46.2922 62.8656C46.3405 64.1849 46.7141 64.33 47.7505 64.3427C50.0946 64.3616 52.4447 64.3679 54.7888 64.4058C55.2227 64.4121 55.5481 64.3048 55.8313 63.9513C55.982 63.762 56.0724 63.5978 56.0663 63.3454C56.0543 62.4554 56.0603 61.5591 56.0603 60.6691C56.0723 60.2272 56.0723 59.7854 56.0723 59.3246ZM6.87655 59.3057C6.87655 59.4698 6.87655 59.5834 6.87655 59.697C6.87655 60.789 6.90668 61.881 6.8645 62.973C6.84642 63.4905 6.97297 63.8756 7.35863 64.1975C7.50927 64.3237 7.64185 64.3932 7.83468 64.3932C9.26885 64.3868 10.703 64.3995 12.1372 64.3868C13.2701 64.3805 14.403 64.3616 15.5358 64.3174C16.283 64.2922 16.5542 64.0334 16.6205 63.2633C16.6747 62.6384 16.6747 62.0072 16.6868 61.376C16.6928 60.9468 16.8133 60.4292 16.6265 60.1136C16.4397 59.8043 15.9456 59.6718 15.566 59.5077C15.3129 59.4004 15.0357 59.312 14.7645 59.312C12.2637 59.2994 9.769 59.3057 7.26824 59.3057C7.15977 59.3057 7.03925 59.3057 6.87655 59.3057ZM58.3562 51.523C58.3682 51.4409 58.3923 51.3526 58.3984 51.2579C58.4586 50.3363 58.537 49.4148 58.5671 48.4932C58.5912 47.8684 58.543 47.2372 58.5249 46.606C58.5189 46.4482 58.4526 46.3661 58.2778 46.3724C56.8859 46.3977 55.4878 46.404 54.0958 46.4482C53.3667 46.4734 52.6978 46.7133 52.1615 47.2624C50.878 48.5753 49.6005 49.8945 48.323 51.2137C48.2567 51.2831 48.1964 51.3652 48.0759 51.523C51.5469 51.523 54.9334 51.523 58.3562 51.523ZM14.873 51.4851C14.7163 51.3084 14.6319 51.2011 14.5295 51.0938C13.5955 50.1154 12.6615 49.1244 11.7154 48.1587C11.3418 47.78 10.9441 47.4265 10.5464 47.073C10.1486 46.7196 9.69067 46.486 9.15436 46.4734C7.78044 46.4355 6.40653 46.404 5.03261 46.3724C4.38784 46.3598 4.35168 46.3661 4.36976 47.0478C4.41194 48.4554 4.50233 49.8566 4.56861 51.2642C4.58067 51.5041 4.65298 51.5861 4.89402 51.5798C7.91301 51.5546 10.932 51.5482 13.957 51.5293C14.2342 51.5293 14.5114 51.5041 14.873 51.4851Z" fill="#BB162B" stroke="#BB162B" stroke-width="3" mask="url(#path-2-inside-1)"/>
<mask id="path-3-inside-2" fill="white">
<path d="M31.3103 43.8666C35.2332 43.8666 39.156 43.8603 43.0789 43.8729C43.8201 43.8729 44.5613 43.9234 45.3025 43.9865C46.1039 44.056 46.4956 44.845 46.122 45.6024C46.0377 45.7791 45.9292 45.9496 45.8087 46.101C43.8141 48.588 41.8195 51.0686 39.8189 53.5492C39.4935 53.9532 39.1139 54.1425 38.5715 54.1362C33.8472 54.111 29.1229 54.111 24.3985 54.1362C23.8441 54.1362 23.4645 53.9405 23.127 53.5303C22.3376 52.5645 21.5302 51.6177 20.7468 50.6457C19.5898 49.2065 18.4449 47.7611 17.312 46.303C17.065 45.9874 16.854 45.6087 16.7335 45.2174C16.5588 44.6367 16.9806 43.9991 17.5531 43.9739C18.7643 43.9108 19.9755 43.8729 21.1927 43.8666C24.5612 43.854 27.9357 43.8603 31.3042 43.8603C31.3103 43.854 31.3103 43.8603 31.3103 43.8666ZM42.2714 46.4987C41.9701 46.4734 41.7532 46.4356 41.5363 46.4356C39.0476 46.4103 36.5589 46.3788 34.0701 46.3788C29.846 46.3851 25.6218 46.4103 21.3976 46.4356C21.1867 46.4356 20.9758 46.4734 20.7167 46.4987C20.789 46.6186 20.8251 46.6817 20.8673 46.7322C22.1026 48.2913 23.3319 49.8567 24.5793 51.4094C24.6576 51.5104 24.8324 51.5672 24.965 51.5672C29.2976 51.5735 33.6303 51.5735 37.9689 51.5799C38.1859 51.5799 38.3184 51.5041 38.451 51.3337C39.0536 50.5636 39.6682 49.7999 40.2769 49.0298C40.9216 48.2156 41.5664 47.395 42.2714 46.4987Z"/>
</mask>
<path d="M31.3103 43.8666C35.2332 43.8666 39.156 43.8603 43.0789 43.8729C43.8201 43.8729 44.5613 43.9234 45.3025 43.9865C46.1039 44.056 46.4956 44.845 46.122 45.6024C46.0377 45.7791 45.9292 45.9496 45.8087 46.101C43.8141 48.588 41.8195 51.0686 39.8189 53.5492C39.4935 53.9532 39.1139 54.1425 38.5715 54.1362C33.8472 54.111 29.1229 54.111 24.3985 54.1362C23.8441 54.1362 23.4645 53.9405 23.127 53.5303C22.3376 52.5645 21.5302 51.6177 20.7468 50.6457C19.5898 49.2065 18.4449 47.7611 17.312 46.303C17.065 45.9874 16.854 45.6087 16.7335 45.2174C16.5588 44.6367 16.9806 43.9991 17.5531 43.9739C18.7643 43.9108 19.9755 43.8729 21.1927 43.8666C24.5612 43.854 27.9357 43.8603 31.3042 43.8603C31.3103 43.854 31.3103 43.8603 31.3103 43.8666ZM42.2714 46.4987C41.9701 46.4734 41.7532 46.4356 41.5363 46.4356C39.0476 46.4103 36.5589 46.3788 34.0701 46.3788C29.846 46.3851 25.6218 46.4103 21.3976 46.4356C21.1867 46.4356 20.9758 46.4734 20.7167 46.4987C20.789 46.6186 20.8251 46.6817 20.8673 46.7322C22.1026 48.2913 23.3319 49.8567 24.5793 51.4094C24.6576 51.5104 24.8324 51.5672 24.965 51.5672C29.2976 51.5735 33.6303 51.5735 37.9689 51.5799C38.1859 51.5799 38.3184 51.5041 38.451 51.3337C39.0536 50.5636 39.6682 49.7999 40.2769 49.0298C40.9216 48.2156 41.5664 47.395 42.2714 46.4987Z" fill="#BB162B" stroke="#BB162B" stroke-width="3" mask="url(#path-3-inside-2)"/>
</g>
<path d="M62 18L31.5 2L1 18" stroke="#BB162B" stroke-width="2.5"/>
<defs>
<clipPath id="clip0">
<rect x="2" y="18" width="59" height="49" fill="white"/>
</clipPath>
</defs>
</svg>
