<svg width="45" height="65" viewBox="0 0 45 65" fill="none" xmlns="http://www.w3.org/2000/svg">
<g clip-path="url(#clip0)">
<path d="M22.5081 64.9997C16.6711 64.9997 10.8341 65.0085 4.99709 64.9997C2.79072 64.9997 0.921898 63.5597 0.263281 61.378C0.131557 60.9416 0.0409977 60.4703 0.0409977 60.0165C0.0245322 57.0231 -0.0413295 54.0297 0.0492304 51.045C0.213885 45.5818 2.40379 41.1484 6.45428 37.7797C9.50038 35.2401 13.0075 34.0358 16.8769 34.0183C20.6475 34.0009 24.4181 33.9572 28.1804 34.0271C34.4455 34.1492 39.3193 37.003 42.67 42.6408C44.2507 45.2938 44.9834 48.2349 44.9998 51.3679C45.0163 54.1431 45.0081 56.9184 44.9998 59.6936C44.9998 62.7307 42.8593 64.9997 39.9779 65.0085C35.2194 65.0172 30.4691 65.0085 25.7106 65.0085C24.6403 64.9997 23.5783 64.9997 22.5081 64.9997ZM33.1694 62.2245C33.1694 62.015 33.1694 61.8492 33.1694 61.6747C33.1694 57.154 33.1694 52.6421 33.1694 48.1214C33.1694 47.2749 33.7293 46.6552 34.4949 46.6552C35.2358 46.6465 35.8121 47.2836 35.8204 48.1214C35.8204 48.2785 35.8204 48.4443 35.8204 48.6014C35.8121 53.0261 35.7957 57.4595 35.7792 61.8841C35.7792 62.1634 35.8533 62.2681 36.1332 62.2594C37.3928 62.2419 38.6524 62.2419 39.912 62.2419C41.3939 62.2332 42.3489 61.2209 42.3489 59.6413C42.3489 56.9969 42.3489 54.3613 42.3489 51.717C42.3571 48.1214 41.3116 44.9098 39.1134 42.1695C36.5778 38.9928 33.3176 37.2474 29.4153 36.8372C29.1107 36.8023 28.9131 36.8896 28.732 37.1601C27.8593 38.4255 26.962 39.6735 26.0975 40.9477C25.9905 41.1048 25.9493 41.384 26.007 41.5673C27.3077 46.1229 28.6167 50.6785 29.9422 55.2253C30.0245 55.5133 29.9998 55.6791 29.7529 55.8711C27.423 57.7387 25.1096 59.6151 22.8044 61.5089C22.5492 61.7183 22.4093 61.6834 22.1788 61.4914C20.063 59.7111 17.9471 57.9395 15.8149 56.1853C15.5432 55.9584 15.502 55.7664 15.5844 55.426C16.7452 50.8268 17.8895 46.2276 19.0421 41.6284C19.1162 41.3491 19.0833 41.1397 18.9186 40.9041C18.0212 39.6386 17.1321 38.3732 16.2512 37.0903C16.103 36.8721 15.9466 36.8023 15.6996 36.8285C13.9213 36.9856 12.2007 37.4219 10.6118 38.2859C5.62278 41.0262 2.88128 45.3374 2.70016 51.3417C2.61784 54.117 2.67547 56.8922 2.6837 59.6674C2.6837 61.2296 3.63046 62.2245 5.10412 62.2332C6.28139 62.2419 7.45867 62.2332 8.63595 62.2332C8.75121 62.2332 8.86646 62.2158 9.00642 62.207C9.00642 60.322 9.00642 58.4718 9.00642 56.6304C9.00642 53.8988 8.98995 51.1672 9.01465 48.4356C9.01465 48.0167 9.11345 47.5629 9.31103 47.2051C9.59094 46.6902 10.2496 46.5331 10.7682 46.7251C11.3363 46.9345 11.6656 47.4407 11.6656 48.1389C11.6656 52.6595 11.6656 57.1715 11.6656 61.6921C11.6656 61.858 11.6656 62.0238 11.6656 62.2158C18.8527 62.2245 25.974 62.2245 33.1694 62.2245ZM22.5328 58.2275C23.9406 57.0929 25.299 55.9671 26.6821 54.8762C26.929 54.6755 26.9784 54.5097 26.8879 54.1955C25.8752 50.7308 24.8791 47.2574 23.8747 43.7927C23.7347 43.3127 23.6936 42.6582 23.3807 42.4139C23.0597 42.1695 22.4587 42.344 21.9812 42.3353C21.94 42.3353 21.8906 42.3179 21.8577 42.3353C21.7507 42.4139 21.5942 42.4924 21.5695 42.6059C20.5569 46.6029 19.5608 50.5999 18.5728 54.597C18.5399 54.7191 18.5893 54.9286 18.6799 54.9984C19.9395 56.0718 21.2238 57.1366 22.5328 58.2275ZM25.7271 36.7848C23.5454 36.7848 21.4707 36.7848 19.2973 36.7848C19.9642 37.7274 20.5734 38.5914 21.1908 39.4553C21.2402 39.5252 21.3802 39.5601 21.479 39.5688C22.1623 39.5775 22.8456 39.5775 23.5289 39.5688C23.6359 39.5688 23.7841 39.5164 23.8418 39.4379C24.4675 38.5826 25.0684 37.7186 25.7271 36.7848Z" fill="#BB162B"/>
<path d="M37.3024 15.4995C37.3271 23.9125 30.7656 31.0164 22.4423 30.9989C14.3496 30.9815 7.73048 24.0259 7.73048 15.5169C7.72224 6.93811 14.3578 -0.00871896 22.5658 8.21384e-06C30.675 0.00873539 37.3024 6.97302 37.3024 15.4995ZM22.5164 28.2324C29.2179 28.215 34.6679 22.5074 34.6514 15.5257C34.635 8.39555 29.2096 2.74907 22.36 2.7578C15.7985 2.76652 10.3567 8.55264 10.3732 15.5257C10.3814 22.5248 15.8562 28.2499 22.5164 28.2324Z" fill="#BB162B"/>
</g>
<defs>
<clipPath id="clip0">
<rect width="45" height="65" fill="white"/>
</clipPath>
</defs>
</svg>
