<svg width="53" height="63" viewBox="0 0 53 63" fill="none" xmlns="http://www.w3.org/2000/svg">
<g clip-path="url(#clip0)">
<path d="M32.0383 0.283665C33.16 0.744814 33.9312 1.66711 34.6673 2.51846C35.6838 3.68907 36.8055 4.39853 38.3829 4.25664C39.119 4.18569 39.8902 4.32758 40.6613 4.39853C41.748 4.46948 42.449 5.03704 42.8346 6.03029C43.2903 7.20089 43.746 8.40698 44.2367 9.61306C44.3419 9.89684 44.6223 10.1806 44.8677 10.3225C45.9543 10.961 47.1111 11.5286 48.2328 12.0962C49.1792 12.5928 49.6699 13.3732 49.5998 14.4729C49.5648 15.7854 49.4596 17.0624 49.4596 18.3749C49.4596 18.6941 49.5648 19.0489 49.74 19.2972C50.4761 20.2904 51.2473 21.2482 52.0185 22.206C52.7546 23.1283 52.8948 24.086 52.3339 25.1502C51.7731 26.2499 51.2824 27.3495 50.7215 28.4137C50.5112 28.8039 50.4761 29.1941 50.5813 29.6198C50.9318 30.8259 51.2122 32.0675 51.5277 33.2735C51.8082 34.3022 51.4927 35.1536 50.7215 35.8276C49.7751 36.6435 48.7936 37.3884 47.8472 38.2397C47.5667 38.4881 47.3564 38.8783 47.2513 39.233C47.0059 40.2617 46.8306 41.2904 46.6904 42.3546C46.5502 43.809 45.9543 44.8377 44.3769 45.1215C44.7976 46.4695 45.2182 47.7465 45.6388 49.0235C46.4801 51.5776 47.2863 54.1671 48.1276 56.7212C48.2678 57.1823 48.3379 57.608 47.9874 57.9627C47.6018 58.3529 47.1812 58.282 46.6904 58.1401C44.447 57.4306 42.1686 56.7212 39.9252 55.9762C39.5046 55.8343 39.2592 55.9053 38.9788 56.26C37.5767 58.211 36.1745 60.1266 34.7724 62.0421C34.492 62.4323 34.1765 62.787 33.6507 62.6806C33.1249 62.6097 32.9497 62.184 32.7744 61.6874C31.7579 58.4948 30.7413 55.3377 29.6898 52.1452C29.6197 51.9678 29.5495 51.755 29.4794 51.5421C28.8835 51.9323 28.3227 52.287 27.7619 52.6418C26.8505 53.2448 25.904 53.2093 24.9927 52.6063C24.4669 52.2516 23.906 51.8968 23.3101 51.5066C23.0297 52.3225 22.7843 53.0674 22.539 53.8124C21.6977 56.4374 20.8564 59.0624 20.0152 61.6874C19.8749 62.1485 19.6646 62.5387 19.1739 62.6097C18.6831 62.6806 18.3677 62.3968 18.0872 62.0066C16.6501 60.0556 15.2129 58.1046 13.8108 56.1181C13.5654 55.7989 13.3902 55.6924 12.9695 55.8343C10.6911 56.5793 8.41265 57.2887 6.13421 58.0337C5.67852 58.1756 5.22283 58.282 4.83725 57.8918C4.45167 57.5016 4.55683 57.0404 4.69704 56.5793C5.88884 52.9256 7.04558 49.2718 8.23738 45.6536C8.30749 45.4762 8.34254 45.2634 8.41265 45.0506C8.20233 44.9796 8.02706 44.9087 7.88685 44.8732C6.97548 44.5539 6.44968 43.9154 6.27442 42.9931C6.02905 41.6452 5.85378 40.2972 5.57336 38.9847C5.53831 38.7364 5.36304 38.4526 5.18778 38.2752C4.24135 37.4239 3.25987 36.6435 2.27839 35.8276C1.36701 35.0827 1.08659 34.1604 1.40206 33.0252C1.71754 31.8546 2.03302 30.684 2.31344 29.4779C2.38354 29.1232 2.34849 28.6975 2.20828 28.3783C1.71754 27.2786 1.19175 26.2144 0.630899 25.1502C0.0349997 24.0151 0.140158 22.9864 0.981428 21.9931C1.75259 21.1772 2.4887 20.2195 3.22481 19.2262C3.40008 18.9779 3.50524 18.6587 3.50524 18.3394C3.47019 17.0624 3.40008 15.7854 3.36503 14.5083C3.32997 13.3732 3.78566 12.5573 4.8022 12.0607C5.92389 11.4931 7.01053 10.9256 8.09717 10.3225C8.37759 10.1806 8.62296 9.89684 8.72812 9.57758C9.21886 8.40698 9.6395 7.23637 10.0952 6.06576C10.4808 5.00157 11.2169 4.434 12.3736 4.36306C13.6005 4.29211 14.8624 4.22117 16.0892 4.11475C16.4047 4.07927 16.7903 3.93738 17.0357 3.68907C17.7718 3.01508 18.4378 2.23468 19.2089 1.56069C19.7347 1.06407 20.3657 0.673868 20.9616 0.212719C21.3121 0.212719 21.6977 0.212719 22.0482 0.212719C23.4503 0.780287 24.8875 1.31238 26.2896 1.84448C26.4298 1.87995 26.6051 1.87995 26.7453 1.809C28.1474 1.27691 29.5496 0.709341 30.9517 0.177246C31.3022 0.283665 31.6527 0.283665 32.0383 0.283665ZM47.5667 16.7786C47.6018 15.9627 47.6369 15.2533 47.6719 14.5793C47.707 14.1891 47.5667 13.9408 47.2162 13.7634C46.0945 13.1958 44.9728 12.5928 43.8511 11.9897C43.1851 11.635 42.6944 11.1384 42.449 10.3935C42.0284 9.25833 41.5727 8.12319 41.1521 6.98806C40.9768 6.52691 40.7665 6.31407 40.2407 6.2786C39.0839 6.24312 37.9272 6.13671 36.7354 6.10123C35.8591 6.06576 35.158 5.78198 34.5271 5.14346C33.6858 4.25664 32.7744 3.40529 31.9331 2.51846C31.6527 2.23468 31.4074 2.16373 31.0218 2.30562C29.865 2.76677 28.6732 3.19245 27.4814 3.6536C26.7804 3.93738 26.1144 3.93738 25.4484 3.6536C24.2566 3.19245 23.0648 2.76677 21.908 2.30562C21.5224 2.16373 21.242 2.19921 20.9616 2.51846C20.1203 3.36981 19.244 4.18569 18.4378 5.07252C17.7718 5.78198 17.0006 6.06576 16.0892 6.10123C14.9325 6.13671 13.7757 6.24312 12.5839 6.31407C12.1984 6.34954 11.988 6.49144 11.8478 6.88164C11.4272 8.01677 10.9715 9.11644 10.5859 10.2161C10.2704 11.0674 9.74466 11.6705 8.97349 12.0607C7.88685 12.5928 6.83526 13.1958 5.74862 13.7279C5.3981 13.9053 5.25788 14.1181 5.25788 14.5438C5.32799 15.8208 5.36304 17.0979 5.3981 18.3749C5.43315 19.1198 5.22283 19.7583 4.76714 20.3614C3.99598 21.3191 3.25987 22.3124 2.45365 23.2702C2.10312 23.6604 2.10312 24.0151 2.34849 24.4762C2.90934 25.5404 3.43513 26.6401 3.99598 27.7397C4.34651 28.4492 4.41661 29.1587 4.2063 29.9036C3.89082 31.1097 3.6104 32.3158 3.25987 33.4864C3.11966 33.9475 3.25987 34.2313 3.6104 34.5151C4.55683 35.2955 5.50325 36.0759 6.44968 36.8563C7.04558 37.3175 7.36106 37.9205 7.50127 38.63C7.71159 39.8715 7.9219 41.1131 8.09717 42.3546C8.16727 42.8158 8.34254 43.0641 8.79823 43.1705C9.99003 43.4543 11.1468 43.809 12.3386 44.1283C13.1097 44.3411 13.6706 44.7313 14.0912 45.4053C14.7572 46.4695 15.4583 47.4982 16.1243 48.5624C16.3697 48.9171 16.615 49.0235 17.0357 48.9526C18.2976 48.7397 19.5595 48.5624 20.8564 48.3495C21.5575 48.2431 22.1534 48.4205 22.7493 48.7752C23.8009 49.4847 24.8875 50.1587 25.9391 50.8681C26.2896 51.1164 26.5701 51.1164 26.9206 50.8681C27.9722 50.1587 29.0238 49.5202 30.0753 48.8107C30.7063 48.4205 31.3372 48.2077 32.0734 48.3495C33.3002 48.5624 34.5271 48.7043 35.7539 48.9171C36.2447 49.0235 36.5251 48.8816 36.8055 48.456C37.4365 47.4272 38.1025 46.4695 38.7334 45.4408C39.1891 44.7313 39.785 44.3056 40.5912 44.0928C41.783 43.7735 42.9398 43.4188 44.1316 43.135C44.5171 43.0286 44.7275 42.8867 44.7976 42.461C44.9728 41.2195 45.2182 39.9779 45.3935 38.7364C45.4986 37.9205 45.8492 37.282 46.4801 36.7854C47.4616 36.0049 48.408 35.1891 49.3895 34.4087C49.705 34.1604 49.7751 33.912 49.6699 33.5218C49.3194 32.2803 49.039 31.0387 48.6884 29.7972C48.4781 29.0522 48.5482 28.3783 48.8988 27.6688C49.4947 26.5337 50.0205 25.3631 50.6163 24.2634C50.7916 23.9087 50.7566 23.6604 50.5112 23.3766C50.0205 22.7735 49.5648 22.0995 49.039 21.532C47.8121 20.2549 47.1812 18.8006 47.5317 17.0269C47.6018 16.9205 47.5667 16.7786 47.5667 16.7786ZM7.11569 55.7989C9.28897 55.1249 11.322 54.4509 13.3902 53.8124C14.1613 53.5641 14.4067 53.6705 14.8974 54.309C16.0892 55.9408 17.281 57.5725 18.4728 59.2043C18.5429 59.3107 18.6831 59.4171 18.8234 59.5945C19.8048 56.5083 20.7863 53.5286 21.7678 50.4424C21.4173 50.4424 21.1719 50.407 20.9265 50.4424C19.7698 50.6198 18.578 50.7972 17.4212 50.9745C16.2645 51.1519 15.3531 50.8327 14.6871 49.7685C14.0211 48.7043 13.3201 47.6401 12.5839 46.5759C12.4437 46.3631 12.2334 46.1857 12.0231 46.1147C11.5324 45.9374 11.0066 45.831 10.4107 45.6536C9.28897 48.9881 8.20233 52.3225 7.11569 55.7989ZM42.5892 45.6891C42.2037 45.7955 41.8882 45.9019 41.5376 45.9729C40.9067 46.0793 40.4861 46.3985 40.1355 46.9661C39.5747 47.9239 38.9087 48.8462 38.3478 49.7685C37.6818 50.8327 36.7705 51.1874 35.5787 50.9745C34.3869 50.7617 33.16 50.5843 31.9682 50.407C31.7579 50.3715 31.5476 50.407 31.2671 50.407C32.2837 53.5286 33.2301 56.5438 34.2116 59.63C34.3518 59.4526 34.4219 59.3816 34.492 59.2752C35.7189 57.608 36.9457 55.9762 38.1375 54.2735C38.5231 53.7414 38.9788 53.5641 39.6097 53.8124C40.3108 54.0607 41.0469 54.2735 41.783 54.5218C43.115 54.9475 44.447 55.3732 45.8842 55.7989C44.7625 52.358 43.7109 49.059 42.5892 45.6891Z" fill="#BB162B" stroke="#BB162B" stroke-width="0.5" stroke-miterlimit="10"/>
<path d="M7.25597 26.6756C7.29102 15.9273 15.914 7.20096 26.5351 7.23644C37.1561 7.27191 45.8142 16.0692 45.7441 26.7466C45.674 37.5303 37.086 46.1857 26.4299 46.1503C15.8089 46.1148 7.22091 37.3885 7.25597 26.6756ZM43.7811 26.7111C43.8863 17.2043 36.1396 9.29387 26.6402 9.18745C17.1058 9.08103 9.32409 16.8141 9.18388 26.6047C9.04366 36.1114 16.7904 44.0928 26.2546 44.1993C35.9292 44.3057 43.711 36.5371 43.7811 26.7111Z" fill="#BB162B" stroke="#BB162B" stroke-width="0.5" stroke-miterlimit="10"/>
<path d="M19.1037 32.5288C19.1037 31.5356 19.1388 30.5423 19.1037 29.5491C19.1037 29.2653 18.9985 28.9106 18.8233 28.6623C17.6665 27.066 16.4747 25.5407 15.2829 23.9798C14.5819 23.0575 14.7922 22.419 15.8788 22.0998C17.7366 21.5322 19.6295 21.0001 21.4873 20.4325C21.7677 20.3616 22.0482 20.1488 22.2234 19.9004C23.3451 18.3042 24.3967 16.6724 25.4833 15.0761C26.1844 14.0474 26.8153 14.0119 27.5164 15.0407C28.603 16.6369 29.6546 18.2332 30.7413 19.794C30.9516 20.0778 31.3021 20.3261 31.6176 20.4325C33.4754 21.0356 35.3332 21.5677 37.2261 22.0998C38.2075 22.3836 38.4179 23.0575 37.7869 23.8734C36.5951 25.4697 35.3683 27.0305 34.2115 28.6268C34.0012 28.8751 33.896 29.2653 33.896 29.62C33.9311 31.5711 34.0012 33.5221 34.0362 35.4731C34.0713 36.5373 33.5105 36.9984 32.4939 36.6437C30.6361 35.9697 28.7783 35.2957 26.9205 34.6572C26.6401 34.5508 26.2545 34.5508 25.9741 34.6572C24.1513 35.2957 22.3286 35.9697 20.5409 36.6082C19.4192 36.9984 18.8934 36.6082 18.9284 35.4021C18.9284 34.4444 18.9284 33.4866 18.9284 32.5288C18.9985 32.5288 19.0336 32.5288 19.1037 32.5288ZM17.4562 23.6251C18.2274 24.6184 18.8583 25.6471 19.6646 26.4984C20.8213 27.74 21.2419 29.1234 21.0316 30.8261C20.8914 31.9613 20.9966 33.1319 20.9966 34.3379C21.2069 34.267 21.4172 34.1961 21.6275 34.1251C23.0296 33.6285 24.4668 33.0609 25.8689 32.5998C26.2545 32.4579 26.7452 32.4934 27.1308 32.5998C28.568 33.0609 29.9701 33.593 31.3722 34.1251C31.5825 34.1961 31.7929 34.267 32.0382 34.3379C32.0382 34.0542 32.0382 33.8059 32.0382 33.593C32.0032 32.1032 31.9331 30.5778 31.9331 29.0879C31.9331 28.6623 32.1083 28.1657 32.3537 27.8109C33.0898 26.7467 33.9311 25.718 34.7022 24.6538C34.9476 24.3346 35.193 23.9798 35.4734 23.5896C33.7208 23.0575 32.0733 22.5964 30.3907 22.0643C30.0402 21.9579 29.6897 21.6741 29.4443 21.3903C28.4979 20.0778 27.6216 18.7298 26.7102 17.3819C26.6401 17.2754 26.5349 17.169 26.3947 16.9917C25.3782 18.4815 24.4317 19.9359 23.4152 21.3548C23.2049 21.6741 22.8193 21.9579 22.4337 22.0643C20.8564 22.6319 19.2089 23.093 17.4562 23.6251Z" fill="#BB162B" stroke="#BB162B" stroke-width="0.5" stroke-miterlimit="10"/>
</g>
<defs>
<clipPath id="clip0">
<rect width="53" height="63" fill="white"/>
</clipPath>
</defs>
</svg>
