<svg width="63" height="63" viewBox="0 0 63 63" fill="none" xmlns="http://www.w3.org/2000/svg">
<g clip-path="url(#clip0)">
<path d="M32.9044 40.3683C32.9044 40.6893 32.9044 40.93 32.8241 41.1708C32.7439 41.9734 32.3426 42.6957 31.7808 43.3377C25.6815 49.437 19.5821 55.5364 13.4827 61.6358C11.9579 63.1606 9.71076 63.1606 8.18592 61.6358C5.85853 59.3886 3.6114 57.0613 1.28401 54.7339C-0.240829 53.209 -0.240829 50.9619 1.28401 49.437C7.38338 43.3377 13.4827 37.2383 19.5821 31.139C20.3847 30.3364 21.3477 29.9351 22.5515 30.0154C22.4713 29.8549 22.391 29.7746 22.3108 29.7746C20.5452 28.009 18.6993 26.1632 16.9337 24.3976C16.7732 24.2371 16.6127 24.2371 16.4522 24.2371C9.30949 26.4039 2.0063 22.0702 0.641973 14.6867C0.240699 12.6804 0.401209 10.7543 1.04325 8.82814C1.36427 7.86508 2.24707 7.70457 2.88911 8.34661C4.41395 9.87145 5.93879 11.316 7.38338 12.8409C8.50694 13.9644 9.87127 13.9644 10.9948 12.8409C11.7171 12.1186 12.3592 11.4765 13.0815 10.7543C14.2853 9.55043 14.205 8.26635 13.0815 7.06253C11.6369 5.61795 10.112 4.0931 8.66745 2.64852C8.42669 2.40775 8.18592 2.08674 8.26618 1.68546C8.34643 1.12368 8.66745 0.882913 9.14898 0.722404C12.0382 -0.160399 14.8471 0.000110887 17.5757 1.12368C22.391 3.13005 25.3604 7.94533 25.0394 13.1619C24.9592 14.2052 24.7184 15.1683 24.4776 16.1313C24.4776 16.2918 24.3974 16.4523 24.5579 16.6129C27.3668 19.4218 30.256 22.3109 33.0649 25.1199L33.1452 25.2001C33.2254 25.1199 33.3057 25.0396 33.4662 24.9593C38.5222 19.9033 43.498 14.9275 48.5541 9.87145C48.7146 9.71094 48.7948 9.47017 48.7948 9.22941C48.7146 8.26635 48.6343 7.3033 48.5541 6.34024C48.5541 5.85871 48.7146 5.45744 49.1961 5.21667C52.1655 3.61158 55.135 1.92623 58.1044 0.32113C58.6662 0.000110932 59.0675 0.0803657 59.549 0.48164C60.4318 1.36444 61.3948 2.3275 62.2776 3.2103C62.8394 3.85234 62.9197 4.17336 62.5987 4.8154C60.9936 7.78482 59.3082 10.7543 57.7031 13.7237C57.4624 14.2052 57.0611 14.446 56.5796 14.3657C55.6165 14.2855 54.6534 14.2052 53.6904 14.2052C53.5299 14.2052 53.2891 14.2855 53.1286 14.3657C48.0725 19.4218 43.0165 24.4778 37.8802 29.5339C37.7999 29.6141 37.7197 29.6944 37.6394 29.7746C37.7197 29.8549 37.7999 29.9351 37.8802 30.0154C40.6089 32.7441 43.4178 35.553 46.1464 38.2816C46.3872 38.5224 46.5477 38.5224 46.7885 38.4422C54.0114 36.195 61.4751 40.93 62.5987 48.3937C62.8394 50.2396 62.7592 52.0052 62.1974 53.8511C61.8764 54.8141 60.9936 55.0549 60.2713 54.3326C58.7464 52.8078 57.3018 51.3632 55.777 49.8383C54.6534 48.7148 53.2891 48.7148 52.1655 49.8383C51.4433 50.5606 50.721 51.2829 49.9987 52.0052C48.9554 53.0485 48.9554 54.4931 49.9987 55.5364C51.5235 57.0613 53.0483 58.5058 54.4929 60.0307C54.7337 60.2715 54.8942 60.5122 54.8942 60.8332C54.9745 61.395 54.6534 61.7963 54.0917 61.9568C52.5668 62.4383 50.9617 62.6791 49.3566 62.4383C44.3006 61.8765 40.7694 59.2281 38.9235 54.5734C37.8802 51.9249 37.8802 49.2765 38.6827 46.5479C38.763 46.3874 38.6827 46.1466 38.6025 46.0664C36.7566 44.1402 34.9108 42.2944 32.9044 40.3683ZM30.898 40.7695C30.898 40.7695 30.8178 40.7695 30.8178 40.6893C30.8178 40.1275 30.577 39.8065 30.256 39.4052C28.0089 37.1581 25.842 34.9912 23.5948 32.7441C22.7923 31.9415 21.8292 31.9415 21.0267 32.7441C15.0076 38.7632 8.98847 44.7823 2.96936 50.8014C2.08656 51.6842 2.08656 52.567 2.96936 53.4498C5.13624 55.6167 7.30312 57.7836 9.55025 60.0307C10.4331 60.9135 11.3961 60.9135 12.2789 60.0307C18.298 54.0116 24.2369 48.0727 30.256 42.0536C30.3362 41.9734 30.4165 41.8931 30.4968 41.8128C30.577 41.4116 30.7375 41.0906 30.898 40.7695ZM33.5464 38.0409C33.6267 38.1211 33.7069 38.2014 33.7872 38.3619C36.0343 40.609 38.2815 42.8562 40.5286 45.023C41.0101 45.5046 41.0904 45.9861 40.8496 46.6281C40.0471 48.6345 39.9668 50.7211 40.5286 52.8078C41.5719 56.981 45.1834 60.0307 49.4369 60.432C50.2394 60.5122 50.9617 60.432 51.7643 60.432V60.3517C51.684 60.2714 51.6038 60.1912 51.5235 60.0307C50.4802 58.9874 49.5171 58.0243 48.4738 56.981C46.7082 55.2154 46.7082 52.4065 48.4738 50.6409C49.1961 49.9186 49.9987 49.116 50.721 48.3937C52.5668 46.5479 55.2955 46.5479 57.2216 48.3937C58.2649 49.3568 59.228 50.4001 60.191 51.4434C60.2713 51.5237 60.2713 51.6842 60.3515 51.8447C60.4318 51.7644 60.4318 51.7644 60.512 51.6842C60.512 51.5237 60.5923 51.4434 60.5923 51.2829C60.5923 50.5606 60.6726 49.9186 60.5923 49.1963C59.87 42.6154 53.0484 38.3619 46.8687 40.7695C46.2267 41.0103 45.7452 40.93 45.2636 40.3683C42.3745 37.4791 39.4853 34.5097 36.5159 31.6205C36.4356 31.5402 36.3554 31.3797 36.2751 31.2995C35.4726 32.102 34.8305 32.7441 34.1885 33.3861C35.1515 35.232 35.0713 35.9543 33.5464 38.0409ZM2.64834 11.1555C2.48783 12.3593 2.48783 13.4829 2.7286 14.6065C4.09293 20.7861 10.4331 24.3173 16.3719 22.0702C16.9337 21.8294 17.4152 21.9097 17.8165 22.3912C19.7426 24.3173 21.6687 26.2434 23.6751 28.2498C24.0764 28.6511 24.4776 29.0523 24.8789 29.4536C26.3235 28.009 27.9286 27.7683 29.614 28.8116C30.256 28.1695 30.9783 27.4472 31.7006 26.7249C31.6203 26.6447 31.4598 26.5644 31.3796 26.4842C28.4904 23.595 25.521 20.6256 22.6318 17.7364C22.1503 17.2549 21.9897 16.7734 22.3108 16.1313C23.0331 14.2855 23.1936 12.4396 22.7923 10.5135C21.749 5.85871 17.8968 2.56826 13.0815 2.40775C12.5197 2.40775 11.9579 2.40775 11.3961 2.48801V2.56826C12.5197 3.69183 13.563 4.73514 14.6866 5.85871C16.5324 7.78482 16.5324 10.4332 14.6866 12.3593C13.9643 13.0816 13.242 13.8039 12.5197 14.5262C10.5936 16.4523 7.94516 16.4523 5.93879 14.5262C4.89548 13.5632 3.93242 12.5199 2.96936 11.5568C2.88911 11.316 2.80885 11.2358 2.64834 11.1555ZM32.7439 31.781C32.9044 31.6205 32.9847 31.46 33.1452 31.2995C39.405 25.0396 45.6649 18.7797 51.9248 12.5199C52.2458 12.1988 52.6471 12.0383 53.1286 12.0383C54.0114 12.1186 54.8942 12.1988 55.6968 12.1988C55.9375 12.1988 56.0178 12.1988 56.1783 11.9581C57.5426 9.47017 58.9069 7.06253 60.2713 4.57463C60.3515 4.41412 60.3515 4.25361 60.191 4.0931C59.7095 3.61158 59.228 3.13005 58.7464 2.64852C58.5859 2.48801 58.4254 2.48801 58.2649 2.56826C55.8573 3.9326 53.3694 5.29693 50.9617 6.66126C50.8012 6.74151 50.721 6.90202 50.721 7.06253C50.8012 7.86508 50.8012 8.74788 50.8815 9.55043C50.9617 10.1122 50.721 10.5135 50.3197 10.9148C44.1401 17.3351 37.8802 23.6753 31.5401 29.9351C31.4598 30.0154 31.2993 30.0956 31.1388 30.1759C31.7808 30.7377 32.1821 31.2192 32.7439 31.781ZM25.6012 31.781C27.4471 33.6269 29.2929 35.4727 31.1388 37.3186C31.5401 36.9173 32.0216 36.516 32.4229 36.1148C32.9044 35.6332 32.8241 34.9109 32.3426 34.3492C31.1388 33.0651 29.8547 31.781 28.5706 30.5772C28.0891 30.0956 27.2866 30.0957 26.805 30.4969C26.4038 30.9785 26.0025 31.3797 25.6012 31.781Z" fill="#BB162B" stroke="#BB162B" stroke-width="0.4" stroke-miterlimit="10"/>
</g>
<defs>
<clipPath id="clip0">
<rect width="63" height="63" fill="white"/>
</clipPath>
</defs>
</svg>
