<svg width="65" height="75" fill="none" xmlns="http://www.w3.org/2000/svg"><path d="M54.32 59.028c4.39-4.594 7.731-10.677 8.714-16.89 2.36-15.077-7.863-30.284-22.737-34.232-8.256-2.2-16.119-1.035-23.523 3.236m5.046-9.524l-5.111 9.642m9.631 3.3l-9.631-3.106m-6.029 4.282c-4.39 4.595-7.731 10.678-8.714 16.89-2.36 15.078 7.863 30.285 22.737 34.232 8.256 2.2 16.119 1.035 23.523-3.236m-5.046 9.76l5.111-9.642m-9.697-3.235l9.697 3.041" stroke="#BB162B" stroke-width="2.5" stroke-miterlimit="10" stroke-linecap="round" stroke-linejoin="round"/><g clip-path="url(#clip0)" stroke="#BB162B" stroke-width="2.5" stroke-miterlimit="10" stroke-linecap="round" stroke-linejoin="round"><path d="M17.616 36.31l6.06-9.34H42.18l5.07 9.34m-14.618 0v-9.34M22.095 49.4a3.686 3.686 0 003.688-3.684 3.686 3.686 0 00-3.688-3.684 3.686 3.686 0 00-3.688 3.684 3.686 3.686 0 003.688 3.684zm21.14 0a3.686 3.686 0 003.688-3.684 3.686 3.686 0 00-3.688-3.684 3.686 3.686 0 00-3.688 3.684 3.686 3.686 0 003.688 3.684zm-4.413-3.816H26.507"/><path d="M18.203 45.275h-3.227c-1.12 0-1.976-.855-1.976-1.974v-5.328c0-1.118.856-1.973 1.976-1.973h36.023c1.12 0 1.976.855 1.976 1.973v5.328c0 1.119-.857 1.974-1.976 1.974h-2.898"/></g><defs><clipPath id="clip0"><path fill="#fff" d="M10.833 25.325h43.333V50.65H10.833z"/></clipPath></defs></svg>