<svg width="62" height="65" viewBox="0 0 62 65" fill="none" xmlns="http://www.w3.org/2000/svg">
<g clip-path="url(#clip0)">
<path d="M3.68653 64.9999C2.93248 64.8354 2.26221 64.5885 1.59194 64.1771C0.502746 63.3543 4.35486e-05 62.2847 -0.0837402 60.9683C4.35486e-05 60.886 4.35486e-05 60.886 4.35486e-05 60.8037C4.35486e-05 44.2657 4.35486e-05 27.81 4.35486e-05 11.2721C4.35486e-05 9.62649 0.754097 8.4746 2.17842 7.65181C2.84869 7.24042 3.68653 7.07586 4.44058 7.07586C8.29464 7.07586 12.2325 7.07586 16.0865 7.07586C16.2541 7.07586 16.3379 7.07586 16.5892 7.07586C16.5892 5.59485 16.5892 4.11384 16.5892 2.63282C16.7568 2.63282 16.8406 2.63282 17.0082 2.63282C18.1811 2.63282 19.2703 2.63282 20.4433 2.63282C20.6946 2.63282 20.946 2.55055 21.1136 2.46827C22.5379 1.48093 24.046 0.740419 25.7217 0.329027C27.7325 -0.246923 29.7433 -8.73739e-05 31.6703 0.822697C32.7595 1.31637 33.6811 1.89232 34.6865 2.46827C34.8541 2.55055 35.0217 2.63282 35.1892 2.63282C36.446 2.63282 37.7027 2.63282 38.9595 2.63282C38.9595 4.11384 38.9595 5.59485 38.9595 7.07586C39.1271 7.07586 39.2946 7.07586 39.4622 7.07586C43.4838 7.07586 47.4217 7.07586 51.4433 7.07586C53.2865 7.07586 54.6271 7.89865 55.4649 9.54422C55.6325 9.95561 55.8 10.5316 55.8 10.9429C55.8 12.9999 55.8 15.1392 55.8 17.1961C55.8 17.2784 55.8 17.2784 55.8 17.3607C54.8784 17.3607 53.9568 17.3607 52.9514 17.3607C52.9514 17.1961 52.9514 17.1138 52.9514 16.9493C52.9514 15.0569 52.9514 13.1645 52.9514 11.2721C52.9514 10.367 52.3649 9.79105 51.4433 9.79105C47.5054 9.79105 43.4838 9.79105 39.546 9.79105C39.4622 9.79105 39.3784 9.79105 39.2108 9.79105C39.2108 11.4366 39.2108 12.9999 39.2108 14.6455C31.6703 14.6455 24.1298 14.6455 16.5892 14.6455C16.5892 12.9999 16.5892 11.4366 16.5892 9.79105C16.4217 9.79105 16.3379 9.79105 16.1703 9.79105C12.2325 9.79105 8.29464 9.79105 4.3568 9.79105C3.35139 9.79105 2.76491 10.367 2.76491 11.3543C2.76491 27.7278 2.76491 44.1012 2.76491 60.5569C2.76491 61.5442 3.35139 62.1202 4.3568 62.1202C20.0244 62.1202 35.6082 62.1202 51.2757 62.1202C52.3649 62.1202 52.8676 61.5442 52.8676 60.4746C52.8676 55.0442 52.8676 49.6138 52.8676 44.2657C52.8676 44.1012 52.8676 44.0189 52.8676 43.8543C53.7892 43.8543 54.7108 43.8543 55.7163 43.8543C55.7163 43.9366 55.7163 44.1012 55.7163 44.1835C55.7163 49.6961 55.7163 55.1265 55.7163 60.6391C55.7163 62.8607 54.2919 64.5062 52.1136 64.9176C52.1136 64.9176 52.0298 64.9176 52.0298 64.9999C35.9433 64.9999 19.8568 64.9999 3.68653 64.9999ZM19.4379 11.9303C25.0514 11.9303 30.5811 11.9303 36.1946 11.9303C36.1946 9.79105 36.1946 7.56953 36.1946 5.43029C35.5244 5.43029 34.9379 5.43029 34.2676 5.43029C34.1 5.43029 33.9325 5.34801 33.7649 5.26573C32.7595 4.44295 31.5865 3.78472 30.4136 3.29105C29.3244 2.87966 28.1514 2.63282 26.8946 2.87966C25.219 3.20877 23.7109 3.94928 22.3703 5.0189C21.9514 5.34801 21.4487 5.51257 20.946 5.51257C20.5271 5.51257 20.1919 5.51257 19.773 5.51257C19.6892 5.51257 19.6054 5.51257 19.5217 5.51257C19.4379 7.65181 19.4379 9.79105 19.4379 11.9303Z" fill="#BB162B"/>
<path d="M28.3189 55.7849C27.2298 55.7849 26.3919 54.7976 26.6433 53.728C27.3135 50.6837 28.0676 47.7216 28.8217 44.6773C28.9054 44.3482 29.073 44.0191 29.3244 43.7723C36.8649 36.3672 44.3217 29.0444 51.8622 21.7216C52.6162 20.9811 53.6217 20.9811 54.3757 21.7216C56.7217 24.0254 59.0676 26.3292 61.4135 28.633C62.1676 29.3735 62.2514 30.3609 61.4135 31.1014C53.873 38.5065 46.3325 45.9115 38.7919 53.2343C38.5406 53.4811 38.2054 53.6457 37.8703 53.728C34.8541 54.3862 31.8379 55.0444 28.8217 55.7849C28.6541 55.7849 28.4865 55.7849 28.3189 55.7849ZM29.8271 52.6583C29.9108 52.6583 29.9108 52.6583 29.9946 52.6583C32.2568 52.1647 34.5189 51.671 36.8649 51.0951C37.0325 51.0951 37.2 50.9305 37.2838 50.8482C42.3946 45.8292 47.5054 40.8925 52.5325 35.8735C52.6162 35.7913 52.7 35.709 52.7 35.709C50.8568 33.8989 49.0135 32.0887 47.1703 30.2786C47.0865 30.2786 47.0865 30.3609 47.0027 30.4432C41.8919 35.3799 36.7811 40.3989 31.6703 45.4178C31.5865 45.5001 31.5027 45.747 31.4189 45.8292C31.1676 46.9811 30.9162 48.0508 30.5811 49.2027C30.3298 50.3546 30.0784 51.5065 29.8271 52.6583ZM58.6487 29.7849C56.8054 28.0571 54.9622 26.247 53.1189 24.5191C51.8622 25.7533 50.6054 26.9875 49.3487 28.2216C51.1919 30.0318 52.9514 31.8419 54.8784 33.652C56.0514 32.3356 57.3081 31.1014 58.6487 29.7849Z" fill="#BB162B"/>
<path d="M20.7783 22.4619C23.8783 22.4619 26.9783 22.4619 30.1621 22.4619C30.4134 22.4619 30.581 22.4619 30.8323 22.5442C31.4188 22.7087 31.8378 23.2847 31.754 23.9429C31.754 24.5189 31.2513 25.0948 30.6648 25.1771C30.4972 25.1771 30.4134 25.2594 30.2459 25.2594C23.9621 25.2594 17.6783 25.2594 11.3107 25.2594C10.8918 25.2594 10.4729 25.1771 10.1378 24.7657C9.80262 24.3543 9.63505 23.8606 9.8864 23.367C10.1378 22.791 10.5567 22.5442 11.1432 22.4619C11.2269 22.4619 11.3945 22.4619 11.4783 22.4619C14.5783 22.4619 17.6783 22.4619 20.7783 22.4619Z" fill="#BB162B"/>
<path d="M20.7784 30.114C23.8784 30.114 26.9784 30.114 30.1622 30.114C30.8324 30.114 31.3351 30.3608 31.6703 30.9368C32.0892 31.7596 31.4189 32.7469 30.4973 32.8292C30.4135 32.8292 30.3297 32.8292 30.2459 32.8292C23.9622 32.8292 17.7622 32.8292 11.4784 32.8292C10.7243 32.8292 10.2216 32.5001 9.97027 31.9241C9.63514 31.1014 10.2216 30.1963 11.1432 30.114C11.3108 30.114 11.4784 30.114 11.6459 30.114C14.6622 30.114 17.6784 30.114 20.7784 30.114Z" fill="#BB162B"/>
<path d="M20.7785 38.3418C23.8785 38.3418 26.9785 38.3418 30.0785 38.3418C30.4136 38.3418 30.7487 38.4241 31.0001 38.5064C31.5028 38.7532 31.7541 39.4114 31.6704 39.9051C31.5028 40.481 31.0001 40.9747 30.4136 40.9747C30.3298 40.9747 30.246 40.9747 30.1623 40.9747C23.8785 40.9747 17.5947 40.9747 11.3109 40.9747C10.5568 40.9747 10.0541 40.6456 9.80279 40.0696C9.46766 39.2469 10.0541 38.3418 10.9758 38.2595C11.1433 38.2595 11.3109 38.2595 11.4785 38.2595C14.6623 38.3418 17.6785 38.3418 20.7785 38.3418Z" fill="#BB162B"/>
</g>
<defs>
<clipPath id="clip0">
<rect width="62" height="65" fill="white"/>
</clipPath>
</defs>
</svg>
