<svg width="62" height="65" fill="none" xmlns="http://www.w3.org/2000/svg"><g clip-path="url(#clip0)" fill="#BB162B"><path d="M3.687 65a6.53 6.53 0 01-2.095-.823C.502 63.354 0 62.285-.084 60.968 0 60.886 0 60.886 0 60.804V11.272c0-1.646.754-2.797 2.178-3.62.67-.412 1.509-.576 2.263-.576h12.148V2.633h3.854c.252 0 .503-.082.67-.165C22.539 1.481 24.047.74 25.723.33c2.01-.576 4.021-.33 5.948.494 1.09.493 2.011 1.07 3.017 1.645.167.083.335.165.502.165h3.77v4.443h12.484c1.843 0 3.184.823 4.022 2.468.167.412.335.988.335 1.399v6.418h-2.849v-6.089c0-.905-.586-1.481-1.508-1.481H39.211v4.854H16.589V9.791H4.357c-1.006 0-1.592.576-1.592 1.563v49.203c0 .987.586 1.563 1.592 1.563h46.919c1.089 0 1.592-.576 1.592-1.645v-16.62h2.848v16.784c0 2.222-1.424 3.867-3.602 4.279 0 0-.084 0-.084.082H3.687zm15.75-53.07h16.758v-6.5h-1.927c-.168 0-.336-.082-.503-.164-1.005-.823-2.178-1.481-3.351-1.975-1.09-.411-2.263-.658-3.52-.411-1.675.329-3.183 1.07-4.524 2.139a2.301 2.301 0 01-1.424.494h-1.424c-.084 2.139-.084 4.278-.084 6.417z"/><path d="M28.319 55.785c-1.09 0-1.927-.987-1.676-2.057.67-3.044 1.425-6.006 2.179-9.05a1.95 1.95 0 01.502-.906c7.54-7.405 14.998-14.728 22.538-22.05.754-.74 1.76-.74 2.514 0l7.038 6.911c.754.74.837 1.728 0 2.468-7.541 7.406-15.081 14.81-22.622 22.133a2.009 2.009 0 01-.922.494c-3.016.658-6.032 1.316-9.048 2.057h-.503zm1.508-3.127h.168c2.262-.493 4.524-.987 6.87-1.563.167 0 .335-.164.419-.247 5.11-5.019 10.221-9.956 15.248-14.974l.168-.165-5.53-5.43c-.084 0-.084.082-.167.164C41.892 35.38 36.78 40.4 31.67 45.418c-.084.082-.167.329-.251.411a49.535 49.535 0 01-.838 3.374l-.754 3.455zM58.65 29.785c-1.844-1.728-3.687-3.538-5.53-5.266l-3.77 3.703c1.843 1.81 3.602 3.62 5.53 5.43 1.172-1.316 2.43-2.55 3.77-3.867zm-37.872-7.323h9.384c.251 0 .419 0 .67.082a1.28 1.28 0 01.922 1.399c0 .576-.503 1.152-1.09 1.234-.167 0-.25.082-.418.082H11.31c-.42 0-.838-.082-1.173-.493-.335-.412-.503-.905-.252-1.399.252-.576.67-.823 1.257-.905h9.636zm0 7.652h9.384c.67 0 1.173.247 1.508.823.42.823-.251 1.81-1.173 1.892H11.478c-.754 0-1.256-.329-1.508-.905-.335-.823.252-1.728 1.173-1.81h9.635zm.001 8.228h9.3c.335 0 .67.082.921.164.503.247.754.905.67 1.4-.167.575-.67 1.069-1.256 1.069H11.31c-.754 0-1.257-.33-1.508-.905-.335-.823.251-1.728 1.173-1.81h.502c3.184.082 6.2.082 9.3.082z"/></g><defs><clipPath id="clip0"><path fill="#fff" d="M0 0h62v65H0z"/></clipPath></defs></svg>