<svg width="63" height="67" fill="none" xmlns="http://www.w3.org/2000/svg"><g clip-path="url(#clip0)"><mask id="a" fill="#fff"><path d="M28.299 18h4.453c.157.013.32.038.476.038 2.85.019 5.694.113 8.52.587 1.598.271 3.176.587 4.695 1.193 1.15.454 2.121 1.136 2.736 2.285.174.328.38.644.554.972 2.194 4.166 4.056 8.502 5.887 12.851.145.347.374.555.645.745a10.5 10.5 0 012.748 2.752c1.253 1.856 1.796 3.964 1.916 6.205.139 2.632.079 5.251-.313 7.858-.235 1.565-.56 3.112-.844 4.665-.096.53-.41.858-.88 1.016-.21.076-.259.195-.259.416-.024 1.294-.036 2.588-.108 3.876-.066 1.212-.645 2.146-1.597 2.815-.313.221-.663.391-1.006.562a1.274 1.274 0 01-.543.132c-2.651.007-5.296-.012-7.948.02a2.9 2.9 0 01-1.573-.41c-.994-.594-1.73-1.415-1.934-2.627-.096-.555-.072-1.13-.09-1.698-.012-.29 0-.58 0-.808-.567.12-1.067.253-1.573.329-.314.05-.639.031-.964.031-1.904.013-3.815.026-5.719.026-4.785-.007-9.575-.02-14.36-.038-.68 0-1.368-.007-1.994-.367-.018-.012-.055.007-.139.02 0 .7.054 1.413-.018 2.108a4.255 4.255 0 01-.422 1.458c-.44.896-1.199 1.445-2.073 1.83-.144.063-.301.133-.452.133-2.687.006-5.375.006-8.068 0a3.47 3.47 0 01-2.115-.707c-.73-.543-1.254-1.256-1.423-2.184-.096-.543-.102-1.105-.132-1.66-.048-.903-.079-1.805-.115-2.708-.012-.284-.072-.486-.391-.568-.163-.038-.332-.208-.422-.366-.145-.259-.277-.543-.332-.84-.337-1.9-.747-3.787-.94-5.7-.186-1.83-.174-3.692-.192-5.535-.013-1.761.192-3.497.837-5.15.802-2.058 2.11-3.68 3.88-4.886a1.6 1.6 0 00.603-.745c1.103-2.55 2.176-5.119 3.35-7.638.995-2.14 2.098-4.222 3.182-6.318.41-.795 1.055-1.363 1.832-1.767.965-.505 1.989-.827 3.038-1.086 2.747-.656 5.531-.921 8.327-1.054.422-.019.838-.044 1.26-.063zM4.888 54.117c.139.77.277 1.483.392 2.197.036.233.12.284.331.284 3.308.031 6.623.07 9.93.12.182 0 .38.05.543.132 1.483.77 2.953 1.56 4.43 2.33.138.069.3.12.451.12 7.002.006 14.01.006 21.013 0 .15 0 .319-.045.458-.12 1.5-.783 2.989-1.572 4.489-2.355a.923.923 0 01.428-.114c2.458-.031 4.917-.063 7.376-.082.964-.006 1.922 0 2.898 0 .15-.864.295-1.672.446-2.512h-2.381c-3.368-.019-6.742-.031-10.11-.057-.356 0-.718-.069-1.073-.12-.248-.037-.41-.195-.507-.441-.223-.556-.24-1.067.2-1.54.819-.865 1.596-1.774 2.428-2.626a206.993 206.993 0 014.2-4.198c.801-.77 1.79-1.205 2.892-1.23 1.356-.038 2.706-.045 4.062-.064h.397c-.048-.246-.078-.467-.138-.675-.627-2.133-1.916-3.68-3.803-4.69-1.373-.732-2.88-1.035-4.38-1.306-3.357-.606-6.75-.865-10.154-.947-3.561-.089-7.123-.082-10.684-.095-4.622-.013-9.244.114-13.842.726-1.741.233-3.477.499-5.152 1.073-2.47.84-4.224 2.474-5.062 5.094-.078.252-.12.517-.192.82h.385c.796 0 1.585-.012 2.38.007.693.012 1.386.025 2.073.094 1.17.12 2.127.745 2.953 1.566a217.625 217.625 0 014.098 4.172c.747.776 1.458 1.59 2.181 2.392.193.215.301.46.277.77-.072.758-.38 1.099-1.108 1.193a3.45 3.45 0 01-.453.032l-12.22.056c-.133-.006-.26-.006-.452-.006zm5.484-19.024c.126-.025.186-.032.24-.044 2.845-.688 5.731-1.048 8.636-1.2 2.965-.151 5.935-.258 8.9-.303 5.43-.082 10.853-.037 16.276.348 2.2.157 4.393.39 6.563.858.518.114 1.03.22 1.584.34-.066-.163-.102-.283-.156-.397-.555-1.256-1.091-2.525-1.67-3.768-1.072-2.285-2.181-4.557-3.26-6.842-.518-1.092-1.355-1.71-2.446-2.064-2.591-.833-5.255-1.174-7.942-1.3-2.031-.095-4.074-.076-6.11-.076-2.676 0-5.358-.038-8.027.315-1.712.228-3.405.537-5.062 1.073-1.09.354-1.94.979-2.434 2.077-.103.227-.248.436-.35.663-1.452 3.13-2.905 6.268-4.35 9.398-.127.284-.242.575-.392.922zm45.7 24.232c-.09-.013-.126-.02-.168-.02-2.718.007-5.436.007-8.154.02a.712.712 0 00-.313.088c-.331.17-.669.34-.988.537-.09.056-.187.195-.187.302-.006.871 0 1.743.03 2.614.048 1.319.422 1.464 1.459 1.477 2.344.019 4.694.025 7.038.063.434.006.76-.101 1.042-.455.151-.189.241-.353.235-.606-.012-.89-.006-1.786-.006-2.676.012-.442.012-.884.012-1.344zm-49.195-.02v.392c0 1.092.03 2.184-.013 3.276-.018.517.109.903.495 1.225.15.126.283.195.476.195 1.434-.006 2.868.007 4.302-.006 1.133-.007 2.266-.025 3.399-.07.747-.025 1.018-.284 1.085-1.054.054-.625.054-1.256.066-1.887.006-.43.126-.947-.06-1.262-.187-.31-.681-.442-1.061-.606-.253-.108-.53-.196-.802-.196-2.5-.013-4.995-.006-7.496-.006h-.391zm51.48-7.782c.011-.082.035-.17.041-.265.06-.922.139-1.843.17-2.765.023-.625-.025-1.256-.043-1.887-.006-.158-.072-.24-.247-.234-1.392.026-2.79.032-4.182.076-.73.025-1.398.265-1.934.814a1163.595 1163.595 0 00-3.839 3.952c-.066.07-.127.151-.247.309h10.28zm-43.484-.038c-.157-.177-.241-.284-.343-.391-.934-.979-1.868-1.97-2.815-2.935a24.341 24.341 0 00-1.169-1.086c-.397-.353-.855-.587-1.392-.6a809.413 809.413 0 00-4.121-.1c-.645-.013-.681-.007-.663.675.042 1.407.132 2.809.199 4.216.012.24.084.322.325.316 3.019-.025 6.038-.032 9.063-.05.277 0 .554-.026.916-.045z"/></mask><path d="M28.299 18h4.453c.157.013.32.038.476.038 2.85.019 5.694.113 8.52.587 1.598.271 3.176.587 4.695 1.193 1.15.454 2.121 1.136 2.736 2.285.174.328.38.644.554.972 2.194 4.166 4.056 8.502 5.887 12.851.145.347.374.555.645.745a10.5 10.5 0 012.748 2.752c1.253 1.856 1.796 3.964 1.916 6.205.139 2.632.079 5.251-.313 7.858-.235 1.565-.56 3.112-.844 4.665-.096.53-.41.858-.88 1.016-.21.076-.259.195-.259.416-.024 1.294-.036 2.588-.108 3.876-.066 1.212-.645 2.146-1.597 2.815-.313.221-.663.391-1.006.562a1.274 1.274 0 01-.543.132c-2.651.007-5.296-.012-7.948.02a2.9 2.9 0 01-1.573-.41c-.994-.594-1.73-1.415-1.934-2.627-.096-.555-.072-1.13-.09-1.698-.012-.29 0-.58 0-.808-.567.12-1.067.253-1.573.329-.314.05-.639.031-.964.031-1.904.013-3.815.026-5.719.026-4.785-.007-9.575-.02-14.36-.038-.68 0-1.368-.007-1.994-.367-.018-.012-.055.007-.139.02 0 .7.054 1.413-.018 2.108a4.255 4.255 0 01-.422 1.458c-.44.896-1.199 1.445-2.073 1.83-.144.063-.301.133-.452.133-2.687.006-5.375.006-8.068 0a3.47 3.47 0 01-2.115-.707c-.73-.543-1.254-1.256-1.423-2.184-.096-.543-.102-1.105-.132-1.66-.048-.903-.079-1.805-.115-2.708-.012-.284-.072-.486-.391-.568-.163-.038-.332-.208-.422-.366-.145-.259-.277-.543-.332-.84-.337-1.9-.747-3.787-.94-5.7-.186-1.83-.174-3.692-.192-5.535-.013-1.761.192-3.497.837-5.15.802-2.058 2.11-3.68 3.88-4.886a1.6 1.6 0 00.603-.745c1.103-2.55 2.176-5.119 3.35-7.638.995-2.14 2.098-4.222 3.182-6.318.41-.795 1.055-1.363 1.832-1.767.965-.505 1.989-.827 3.038-1.086 2.747-.656 5.531-.921 8.327-1.054.422-.019.838-.044 1.26-.063zM4.888 54.117c.139.77.277 1.483.392 2.197.036.233.12.284.331.284 3.308.031 6.623.07 9.93.12.182 0 .38.05.543.132 1.483.77 2.953 1.56 4.43 2.33.138.069.3.12.451.12 7.002.006 14.01.006 21.013 0 .15 0 .319-.045.458-.12 1.5-.783 2.989-1.572 4.489-2.355a.923.923 0 01.428-.114c2.458-.031 4.917-.063 7.376-.082.964-.006 1.922 0 2.898 0 .15-.864.295-1.672.446-2.512h-2.381c-3.368-.019-6.742-.031-10.11-.057-.356 0-.718-.069-1.073-.12-.248-.037-.41-.195-.507-.441-.223-.556-.24-1.067.2-1.54.819-.865 1.596-1.774 2.428-2.626a206.993 206.993 0 014.2-4.198c.801-.77 1.79-1.205 2.892-1.23 1.356-.038 2.706-.045 4.062-.064h.397c-.048-.246-.078-.467-.138-.675-.627-2.133-1.916-3.68-3.803-4.69-1.373-.732-2.88-1.035-4.38-1.306-3.357-.606-6.75-.865-10.154-.947-3.561-.089-7.123-.082-10.684-.095-4.622-.013-9.244.114-13.842.726-1.741.233-3.477.499-5.152 1.073-2.47.84-4.224 2.474-5.062 5.094-.078.252-.12.517-.192.82h.385c.796 0 1.585-.012 2.38.007.693.012 1.386.025 2.073.094 1.17.12 2.127.745 2.953 1.566a217.625 217.625 0 014.098 4.172c.747.776 1.458 1.59 2.181 2.392.193.215.301.46.277.77-.072.758-.38 1.099-1.108 1.193a3.45 3.45 0 01-.453.032l-12.22.056c-.133-.006-.26-.006-.452-.006zm5.484-19.024c.126-.025.186-.032.24-.044 2.845-.688 5.731-1.048 8.636-1.2 2.965-.151 5.935-.258 8.9-.303 5.43-.082 10.853-.037 16.276.348 2.2.157 4.393.39 6.563.858.518.114 1.03.22 1.584.34-.066-.163-.102-.283-.156-.397-.555-1.256-1.091-2.525-1.67-3.768-1.072-2.285-2.181-4.557-3.26-6.842-.518-1.092-1.355-1.71-2.446-2.064-2.591-.833-5.255-1.174-7.942-1.3-2.031-.095-4.074-.076-6.11-.076-2.676 0-5.358-.038-8.027.315-1.712.228-3.405.537-5.062 1.073-1.09.354-1.94.979-2.434 2.077-.103.227-.248.436-.35.663-1.452 3.13-2.905 6.268-4.35 9.398-.127.284-.242.575-.392.922zm45.7 24.232c-.09-.013-.126-.02-.168-.02-2.718.007-5.436.007-8.154.02a.712.712 0 00-.313.088c-.331.17-.669.34-.988.537-.09.056-.187.195-.187.302-.006.871 0 1.743.03 2.614.048 1.319.422 1.464 1.459 1.477 2.344.019 4.694.025 7.038.063.434.006.76-.101 1.042-.455.151-.189.241-.353.235-.606-.012-.89-.006-1.786-.006-2.676.012-.442.012-.884.012-1.344zm-49.195-.02v.392c0 1.092.03 2.184-.013 3.276-.018.517.109.903.495 1.225.15.126.283.195.476.195 1.434-.006 2.868.007 4.302-.006 1.133-.007 2.266-.025 3.399-.07.747-.025 1.018-.284 1.085-1.054.054-.625.054-1.256.066-1.887.006-.43.126-.947-.06-1.262-.187-.31-.681-.442-1.061-.606-.253-.108-.53-.196-.802-.196-2.5-.013-4.995-.006-7.496-.006h-.391zm51.48-7.782c.011-.082.035-.17.041-.265.06-.922.139-1.843.17-2.765.023-.625-.025-1.256-.043-1.887-.006-.158-.072-.24-.247-.234-1.392.026-2.79.032-4.182.076-.73.025-1.398.265-1.934.814a1163.595 1163.595 0 00-3.839 3.952c-.066.07-.127.151-.247.309h10.28zm-43.484-.038c-.157-.177-.241-.284-.343-.391-.934-.979-1.868-1.97-2.815-2.935a24.341 24.341 0 00-1.169-1.086c-.397-.353-.855-.587-1.392-.6a809.413 809.413 0 00-4.121-.1c-.645-.013-.681-.007-.663.675.042 1.407.132 2.809.199 4.216.012.24.084.322.325.316 3.019-.025 6.038-.032 9.063-.05.277 0 .554-.026.916-.045z" fill="#BB162B" stroke="#BB162B" stroke-width="3" mask="url(#a)"/><mask id="b" fill="#fff"><path d="M31.31 43.867c3.923 0 7.846-.007 11.769.006.741 0 1.482.05 2.224.114.8.069 1.193.858.819 1.615a2.629 2.629 0 01-.313.499c-1.995 2.487-3.99 4.968-5.99 7.448-.326.404-.705.593-1.248.587a1328.54 1328.54 0 00-14.172 0c-.555 0-.934-.196-1.272-.606-.79-.965-1.597-1.912-2.38-2.884a333.666 333.666 0 01-3.435-4.343 3.453 3.453 0 01-.579-1.086c-.174-.58.248-1.218.82-1.243a77.61 77.61 0 013.64-.107c3.368-.013 6.743-.007 10.111-.007.006-.006.006 0 .006.007zm10.961 2.632c-.3-.026-.518-.063-.735-.063-2.488-.026-4.977-.057-7.466-.057-4.224.006-8.448.031-12.672.057-.211 0-.422.037-.681.063.072.12.108.183.15.233 1.236 1.56 2.465 3.125 3.712 4.677.079.101.253.158.386.158 4.333.007 8.665.007 13.004.013.217 0 .35-.076.482-.246.603-.77 1.217-1.534 1.826-2.304.645-.814 1.29-1.635 1.994-2.531z"/></mask><path d="M31.31 43.867c3.923 0 7.846-.007 11.769.006.741 0 1.482.05 2.224.114.8.069 1.193.858.819 1.615a2.629 2.629 0 01-.313.499c-1.995 2.487-3.99 4.968-5.99 7.448-.326.404-.705.593-1.248.587a1328.54 1328.54 0 00-14.172 0c-.555 0-.934-.196-1.272-.606-.79-.965-1.597-1.912-2.38-2.884a333.666 333.666 0 01-3.435-4.343 3.453 3.453 0 01-.579-1.086c-.174-.58.248-1.218.82-1.243a77.61 77.61 0 013.64-.107c3.368-.013 6.743-.007 10.111-.007.006-.006.006 0 .006.007zm10.961 2.632c-.3-.026-.518-.063-.735-.063-2.488-.026-4.977-.057-7.466-.057-4.224.006-8.448.031-12.672.057-.211 0-.422.037-.681.063.072.12.108.183.15.233 1.236 1.56 2.465 3.125 3.712 4.677.079.101.253.158.386.158 4.333.007 8.665.007 13.004.013.217 0 .35-.076.482-.246.603-.77 1.217-1.534 1.826-2.304.645-.814 1.29-1.635 1.994-2.531z" fill="#BB162B" stroke="#BB162B" stroke-width="3" mask="url(#b)"/></g><path d="M62 18L31.5 2 1 18" stroke="#BB162B" stroke-width="2.5"/><defs><clipPath id="clip0"><path fill="#fff" d="M2 18h59v49H2z"/></clipPath></defs></svg>