<svg width="53" height="63" fill="none" xmlns="http://www.w3.org/2000/svg"><g clip-path="url(#clip0)" fill="#BB162B" stroke="#BB162B" stroke-width=".5" stroke-miterlimit="10"><path d="M32.038.284c1.122.46 1.893 1.383 2.63 2.234 1.016 1.171 2.138 1.88 3.715 1.739.736-.071 1.507.07 2.278.142 1.087.07 1.788.638 2.174 1.631.455 1.17.911 2.377 1.402 3.583.105.284.385.568.63.71 1.087.638 2.244 1.206 3.366 1.773.946.497 1.437 1.277 1.367 2.377-.035 1.312-.14 2.59-.14 3.902 0 .32.105.674.28.922a92.018 92.018 0 002.279 2.909c.736.922.876 1.88.315 2.944-.56 1.1-1.052 2.2-1.613 3.264-.21.39-.245.78-.14 1.206.35 1.206.631 2.448.947 3.653.28 1.03-.035 1.88-.806 2.555-.947.816-1.928 1.56-2.875 2.412-.28.248-.49.638-.596.993a30.552 30.552 0 00-.56 3.122c-.14 1.454-.737 2.483-2.314 2.767.42 1.347.841 2.624 1.262 3.901.841 2.555 1.647 5.144 2.489 7.698.14.461.21.887-.14 1.242-.386.39-.807.319-1.298.177-2.243-.71-4.521-1.419-6.765-2.164-.42-.142-.666-.07-.946.284a775.085 775.085 0 01-4.207 5.782c-.28.39-.596.745-1.121.639-.526-.071-.701-.497-.877-.994a1005.67 1005.67 0 00-3.084-9.542c-.07-.177-.14-.39-.21-.603-.596.39-1.157.745-1.718 1.1-.912.603-1.858.567-2.77-.036-.525-.354-1.086-.71-1.682-1.1-.28.816-.526 1.561-.771 2.306l-2.524 7.875c-.14.462-.35.852-.841.923-.49.07-.806-.213-1.087-.603-1.437-1.951-2.874-3.902-4.276-5.889-.246-.32-.42-.426-.841-.284-2.279.745-4.557 1.455-6.836 2.2-.455.142-.911.248-1.297-.142-.385-.39-.28-.852-.14-1.313 1.192-3.653 2.349-7.307 3.54-10.925.07-.178.106-.39.176-.603-.21-.071-.386-.142-.526-.178-.912-.32-1.437-.958-1.613-1.88-.245-1.348-.42-2.696-.7-4.008-.036-.249-.211-.532-.386-.71-.947-.851-1.928-1.631-2.91-2.447-.911-.745-1.191-1.668-.876-2.803.316-1.17.631-2.341.911-3.547.07-.355.035-.78-.105-1.1A54.774 54.774 0 00.631 25.15c-.596-1.135-.49-2.164.35-3.157.772-.816 1.508-1.773 2.244-2.767.175-.248.28-.567.28-.887-.035-1.277-.105-2.554-.14-3.83-.035-1.136.42-1.952 1.437-2.448a96.883 96.883 0 003.295-1.739c.28-.141.526-.425.631-.744.49-1.171.912-2.342 1.367-3.512.386-1.064 1.122-1.632 2.279-1.703 1.226-.07 2.488-.142 3.715-.248.316-.036.701-.178.947-.426.736-.674 1.402-1.454 2.173-2.128.526-.497 1.157-.887 1.753-1.348h1.086c1.402.567 2.84 1.1 4.242 1.631a.67.67 0 00.455-.035c1.402-.532 2.805-1.1 4.207-1.632.35.107.7.107 1.086.107zm15.529 16.495c.035-.816.07-1.526.105-2.2.035-.39-.105-.638-.456-.816a153.59 153.59 0 01-3.365-1.773c-.666-.355-1.157-.852-1.402-1.597-.42-1.135-.876-2.27-1.297-3.405-.175-.461-.386-.674-.911-.71-1.157-.035-2.314-.141-3.506-.177-.876-.035-1.577-.319-2.208-.958-.841-.886-1.753-1.738-2.594-2.625-.28-.283-.526-.354-.911-.212-1.157.46-2.349.886-3.54 1.348-.702.283-1.368.283-2.034 0-1.191-.462-2.383-.887-3.54-1.348-.386-.142-.666-.107-.946.212-.842.852-1.718 1.668-2.524 2.555-.666.709-1.437.993-2.349 1.028-1.156.036-2.313.142-3.505.213-.386.036-.596.177-.736.568-.42 1.135-.877 2.234-1.262 3.334-.316.851-.841 1.455-1.613 1.845-1.086.532-2.138 1.135-3.224 1.667-.35.177-.491.39-.491.816.07 1.277.105 2.554.14 3.83.035.746-.175 1.384-.63 1.987-.772.958-1.508 1.951-2.314 2.91-.35.39-.35.744-.106 1.205.561 1.064 1.087 2.164 1.648 3.264.35.71.42 1.419.21 2.164-.315 1.206-.596 2.412-.946 3.582-.14.462 0 .745.35 1.03l2.84 2.34c.596.462.911 1.064 1.051 1.774.21 1.241.42 2.483.596 3.725.07.46.246.71.701.816 1.192.283 2.349.638 3.54.957.772.213 1.333.603 1.753 1.277.666 1.064 1.367 2.093 2.033 3.157.246.355.491.462.912.39 1.262-.212 2.523-.39 3.82-.602.701-.107 1.297.07 1.893.425 1.052.71 2.139 1.384 3.19 2.093.35.248.631.248.982 0 1.051-.71 2.103-1.348 3.154-2.057.631-.39 1.262-.603 1.998-.462 1.227.213 2.454.355 3.68.568.492.106.772-.035 1.053-.461.63-1.029 1.297-1.987 1.927-3.015.456-.71 1.052-1.135 1.858-1.348 1.192-.32 2.349-.674 3.54-.958.386-.106.596-.248.667-.674.175-1.242.42-2.483.596-3.725.105-.816.455-1.454 1.086-1.95.982-.781 1.928-1.597 2.91-2.377.315-.249.385-.497.28-.887-.35-1.242-.631-2.483-.982-3.725-.21-.745-.14-1.419.21-2.128.597-1.135 1.122-2.306 1.718-3.406.176-.354.14-.603-.105-.886-.49-.604-.946-1.277-1.472-1.845-1.227-1.277-1.858-2.731-1.507-4.505.07-.107.035-.248.035-.248zM7.116 55.799c2.173-.674 4.206-1.348 6.274-1.987.771-.248 1.017-.142 1.507.497l3.576 4.895c.07.107.21.213.35.39.982-3.086 1.963-6.065 2.945-9.152-.35 0-.596-.035-.841 0-1.157.178-2.349.355-3.506.532-1.156.178-2.068-.141-2.734-1.205a83.115 83.115 0 00-2.103-3.193c-.14-.213-.35-.39-.56-.461-.492-.178-1.017-.284-1.613-.461a491.231 491.231 0 00-3.295 10.145zm35.473-10.11c-.385.106-.7.213-1.051.284-.631.106-1.052.425-1.402.993-.561.958-1.227 1.88-1.788 2.803-.666 1.064-1.578 1.418-2.77 1.206-1.191-.213-2.418-.39-3.61-.568-.21-.035-.42 0-.7 0 1.016 3.122 1.962 6.137 2.944 9.223.14-.177.21-.248.28-.355 1.227-1.667 2.454-3.299 3.646-5.002.385-.532.84-.709 1.472-.46.7.248 1.437.46 2.173.709 1.332.425 2.664.851 4.101 1.277-1.121-3.441-2.173-6.74-3.295-10.11z"/><path d="M7.256 26.676c.035-10.749 8.658-19.475 19.28-19.44 10.62.036 19.278 8.833 19.208 19.51-.07 10.784-8.658 19.44-19.314 19.404-10.621-.035-19.21-8.761-19.174-19.474zm36.525.035c.105-9.507-7.641-17.417-17.14-17.524-9.535-.106-17.317 7.627-17.457 17.418-.14 9.506 7.606 17.488 17.07 17.594 9.675.107 17.457-7.662 17.527-17.488z"/><path d="M19.104 32.529c0-.993.035-1.987 0-2.98 0-.284-.105-.638-.28-.887-1.158-1.596-2.35-3.121-3.541-4.682-.701-.922-.49-1.561.596-1.88 1.858-.568 3.75-1.1 5.608-1.668.28-.07.561-.283.736-.532 1.122-1.596 2.174-3.228 3.26-4.824.701-1.029 1.332-1.064 2.033-.035 1.087 1.596 2.139 3.192 3.225 4.753.21.284.561.532.877.639 1.857.603 3.715 1.135 5.608 1.667.982.284 1.192.957.56 1.773-1.19 1.597-2.418 3.157-3.575 4.754-.21.248-.315.638-.315.993.035 1.951.105 3.902.14 5.853.035 1.064-.526 1.525-1.542 1.17-1.858-.673-3.716-1.347-5.573-1.986a1.443 1.443 0 00-.947 0c-1.823.639-3.645 1.313-5.433 1.951-1.122.39-1.648 0-1.613-1.206V32.53h.176zm-1.648-8.904c.771.993 1.402 2.022 2.209 2.873 1.156 1.242 1.577 2.625 1.367 4.328-.14 1.135-.035 2.306-.035 3.512l.63-.213c1.403-.496 2.84-1.064 4.242-1.525.386-.142.876-.107 1.262 0 1.437.46 2.84.993 4.241 1.525.21.071.42.142.666.213v-.745c-.035-1.49-.105-3.015-.105-4.505 0-.426.175-.922.42-1.277.737-1.064 1.578-2.093 2.35-3.157.245-.32.49-.674.77-1.064-1.752-.532-3.4-.994-5.082-1.526-.35-.106-.701-.39-.947-.674-.946-1.312-1.822-2.66-2.734-4.008-.07-.107-.175-.213-.315-.39-1.017 1.49-1.963 2.944-2.98 4.363-.21.32-.596.603-.981.71-1.578.567-3.225 1.028-4.978 1.56z"/></g><defs><clipPath id="clip0"><path fill="#fff" d="M0 0h53v63H0z"/></clipPath></defs></svg>